<svg width="97" height="116" viewBox="0 0 97 116" fill="none" xmlns="http://www.w3.org/2000/svg">
<g filter="url(#filter0_dd_5_5082)">
<rect x="4" y="2" width="89" height="108" rx="8" fill="white"/>
<path d="M58.9799 55.5H38.0199C32.4199 55.5 28.8599 52.16 28.5399 46.58L27.4999 30.08C27.3399 27.58 28.1999 25.18 29.9199 23.36C31.6199 21.54 34.0199 20.5 36.4999 20.5C37.1399 20.5 37.7599 20.12 38.0599 19.52L39.4999 16.66C40.6799 14.32 43.6399 12.5 46.2199 12.5H50.7999C53.3799 12.5 56.3199 14.32 57.4999 16.64L58.9399 19.56C59.2399 20.12 59.8399 20.5 60.4999 20.5C62.9799 20.5 65.3799 21.54 67.0799 23.36C68.7999 25.2 69.6599 27.58 69.4999 30.08L68.4599 46.6C68.0999 52.26 64.6399 55.5 58.9799 55.5ZM46.2199 15.5C44.7399 15.5 42.8599 16.66 42.1799 18L40.7399 20.88C39.8999 22.5 38.2799 23.5 36.4999 23.5C34.8199 23.5 33.2599 24.18 32.0999 25.4C30.9599 26.62 30.3799 28.22 30.4999 29.88L31.5399 46.4C31.7799 50.44 33.9599 52.5 38.0199 52.5H58.9799C63.0199 52.5 65.1999 50.44 65.4599 46.4L66.4999 29.88C66.5999 28.22 66.0399 26.62 64.8999 25.4C63.7399 24.18 62.1799 23.5 60.4999 23.5C58.7199 23.5 57.0999 22.5 56.2599 20.92L54.7999 18C54.1399 16.68 52.2599 15.52 50.7799 15.52H46.2199V15.5Z" fill="#444444"/>
<path d="M51.5 27.5H45.5C44.68 27.5 44 26.82 44 26C44 25.18 44.68 24.5 45.5 24.5H51.5C52.32 24.5 53 25.18 53 26C53 26.82 52.32 27.5 51.5 27.5Z" fill="#444444"/>
<path d="M48.5 47.5C44.08 47.5 40.5 43.92 40.5 39.5C40.5 35.08 44.08 31.5 48.5 31.5C52.92 31.5 56.5 35.08 56.5 39.5C56.5 43.92 52.92 47.5 48.5 47.5ZM48.5 34.5C45.74 34.5 43.5 36.74 43.5 39.5C43.5 42.26 45.74 44.5 48.5 44.5C51.26 44.5 53.5 42.26 53.5 39.5C53.5 36.74 51.26 34.5 48.5 34.5Z" fill="#444444"/>
<path d="M25.4762 85H24.141C24.0415 84.5028 23.8616 84.0436 23.6012 83.6222C23.3455 83.196 23.0236 82.8243 22.6353 82.5071C22.247 82.1899 21.8067 81.9437 21.3143 81.7685C20.8219 81.5933 20.2892 81.5057 19.7163 81.5057C18.7977 81.5057 17.9596 81.7448 17.2021 82.223C16.4492 82.7012 15.8455 83.4044 15.391 84.3324C14.9412 85.2557 14.7163 86.3873 14.7163 87.7273C14.7163 89.0767 14.9412 90.2131 15.391 91.1364C15.8455 92.0597 16.4492 92.7604 17.2021 93.2386C17.9596 93.7121 18.7977 93.9489 19.7163 93.9489C20.2892 93.9489 20.8219 93.8613 21.3143 93.6861C21.8067 93.5109 22.247 93.267 22.6353 92.9545C23.0236 92.6373 23.3455 92.2656 23.6012 91.8395C23.8616 91.4134 24.0415 90.9517 24.141 90.4545H25.4762C25.3578 91.1222 25.1353 91.7448 24.8086 92.3224C24.4866 92.8954 24.0747 93.3973 23.5728 93.8281C23.0756 94.259 22.5027 94.5952 21.854 94.8366C21.2054 95.0781 20.4928 95.1989 19.7163 95.1989C18.4947 95.1989 17.4104 94.8935 16.4634 94.2827C15.5165 93.6671 14.7731 92.8007 14.2333 91.6832C13.6983 90.5658 13.4308 89.2472 13.4308 87.7273C13.4308 86.2074 13.6983 84.8887 14.2333 83.7713C14.7731 82.6539 15.5165 81.7898 16.4634 81.179C17.4104 80.5634 18.4947 80.2557 19.7163 80.2557C20.4928 80.2557 21.2054 80.3764 21.854 80.6179C22.5027 80.8546 23.0756 81.1908 23.5728 81.6264C24.0747 82.0573 24.4866 82.5592 24.8086 83.1321C25.1353 83.705 25.3578 84.3277 25.4762 85ZM31.38 95.2486C30.7218 95.2486 30.1205 95.1207 29.576 94.8651C29.0315 94.6046 28.5982 94.2306 28.2763 93.7429C27.9543 93.2505 27.7933 92.6539 27.7933 91.9531C27.7933 91.4134 27.8951 90.9588 28.0987 90.5895C28.3023 90.2202 28.5911 89.9171 28.9652 89.6804C29.3393 89.4437 29.782 89.2566 30.2933 89.1193C30.8047 88.982 31.3681 88.8755 31.9837 88.7997C32.5945 88.724 33.1106 88.6577 33.532 88.6009C33.9581 88.544 34.2824 88.4541 34.505 88.331C34.7275 88.2079 34.8388 88.009 34.8388 87.7344V87.4787C34.8388 86.7353 34.6162 86.1506 34.1712 85.7244C33.7308 85.2936 33.0964 85.0781 32.2678 85.0781C31.4818 85.0781 30.8402 85.2509 30.343 85.5966C29.8506 85.9422 29.505 86.3494 29.3061 86.8182L28.1058 86.3849C28.352 85.7884 28.6929 85.3125 29.1286 84.9574C29.5642 84.5975 30.0518 84.3395 30.5916 84.1832C31.1314 84.0223 31.6783 83.9418 32.2322 83.9418C32.6489 83.9418 33.0821 83.9962 33.532 84.1051C33.9865 84.214 34.4079 84.4034 34.7962 84.6733C35.1844 84.9384 35.4993 85.3101 35.7408 85.7884C35.9822 86.2618 36.103 86.8632 36.103 87.5923V95H34.8388V93.2741H34.7607C34.6091 93.5961 34.3842 93.9086 34.0859 94.2116C33.7876 94.5147 33.4136 94.7633 32.9638 94.9574C32.514 95.1515 31.986 95.2486 31.38 95.2486ZM31.5504 94.0909C32.2228 94.0909 32.8052 93.9418 33.2976 93.6435C33.79 93.3452 34.1688 92.9498 34.4339 92.4574C34.7038 91.9602 34.8388 91.4134 34.8388 90.8168V89.2401C34.7441 89.33 34.5855 89.4105 34.3629 89.4815C34.1451 89.5526 33.8918 89.6165 33.603 89.6733C33.3189 89.7254 33.0348 89.7704 32.7507 89.8082C32.4666 89.8461 32.2109 89.8793 31.9837 89.9077C31.3681 89.9834 30.8426 90.1018 30.407 90.2628C29.9714 90.4238 29.6375 90.6463 29.4055 90.9304C29.1735 91.2098 29.0575 91.5696 29.0575 92.0099C29.0575 92.6728 29.2943 93.1866 29.7678 93.5511C30.2412 93.911 30.8355 94.0909 31.5504 94.0909ZM39.4659 95V84.0909H40.6946V85.767H40.8082C41.026 85.2036 41.3883 84.7609 41.8949 84.4389C42.4063 84.1122 43.0194 83.9489 43.7344 83.9489C44.4872 83.9489 45.1051 84.1264 45.5881 84.4815C46.0758 84.8319 46.4403 85.3149 46.6818 85.9304H46.7741C47.0204 85.3243 47.4205 84.8437 47.9744 84.4886C48.5331 84.1288 49.2102 83.9489 50.0057 83.9489C51.0189 83.9489 51.8191 84.2685 52.4062 84.9077C52.9934 85.5421 53.2869 86.4702 53.2869 87.6918V95H52.0227V87.6918C52.0227 86.83 51.8026 86.1837 51.3622 85.7528C50.9219 85.322 50.3419 85.1065 49.6222 85.1065C48.7888 85.1065 48.1473 85.3622 47.6974 85.8736C47.2476 86.3849 47.0227 87.0336 47.0227 87.8196V95H45.7301V87.5781C45.7301 86.8395 45.5241 86.2429 45.1122 85.7884C44.7003 85.3338 44.1203 85.1065 43.3722 85.1065C42.8703 85.1065 42.4181 85.2296 42.0156 85.4759C41.6179 85.7221 41.303 86.0653 41.071 86.5057C40.8438 86.9413 40.7301 87.4432 40.7301 88.0114V95H39.4659ZM61.0444 95.2273C60.0264 95.2273 59.1457 94.9905 58.4023 94.517C57.659 94.0388 57.0837 93.3783 56.6765 92.5355C56.274 91.688 56.0728 90.7126 56.0728 89.6094C56.0728 88.5109 56.274 87.5355 56.6765 86.6832C57.0837 85.8262 57.6448 85.1562 58.3597 84.6733C59.0794 84.1856 59.9104 83.9418 60.8526 83.9418C61.4445 83.9418 62.015 84.0507 62.5643 84.2685C63.1135 84.4815 63.6059 84.8106 64.0415 85.2557C64.4819 85.696 64.8299 86.2524 65.0856 86.9247C65.3413 87.5923 65.4691 88.383 65.4691 89.2969V89.9219H56.9464V88.8068H64.1765C64.1765 88.1061 64.0344 87.4763 63.7504 86.9176C63.471 86.3542 63.0804 85.9091 62.5785 85.5824C62.0813 85.2557 61.506 85.0923 60.8526 85.0923C60.1613 85.0923 59.5529 85.277 59.0273 85.6463C58.5018 86.0156 58.0898 86.5033 57.7915 87.1094C57.498 87.7154 57.3488 88.3783 57.3441 89.098V89.7656C57.3441 90.6321 57.4933 91.3897 57.7915 92.0384C58.0946 92.6823 58.5231 93.1818 59.0771 93.5369C59.631 93.892 60.2868 94.0696 61.0444 94.0696C61.5605 94.0696 62.0127 93.9891 62.4009 93.8281C62.7939 93.6671 63.123 93.4517 63.3881 93.1818C63.658 92.9072 63.8616 92.6065 63.9989 92.2798L65.1992 92.6705C65.0335 93.1297 64.7612 93.5535 64.3825 93.9418C64.0084 94.33 63.5397 94.6425 62.9762 94.8793C62.4175 95.1113 61.7736 95.2273 61.0444 95.2273ZM68.255 95V84.0909H69.4837V85.767H69.576C69.7938 85.2178 70.1726 84.7751 70.7124 84.4389C71.2569 84.098 71.8724 83.9276 72.5589 83.9276C72.6631 83.9276 72.7791 83.9299 72.907 83.9347C73.0348 83.9394 73.1413 83.9441 73.2266 83.9489V85.2344C73.1697 85.2249 73.0703 85.2107 72.9283 85.1918C72.7862 85.1728 72.6323 85.1634 72.4666 85.1634C71.8984 85.1634 71.3918 85.2841 70.9467 85.5256C70.5064 85.7623 70.1584 86.0914 69.9027 86.5128C69.647 86.9342 69.5192 87.4148 69.5192 87.9545V95H68.255ZM78.4308 95.2486C77.7726 95.2486 77.1713 95.1207 76.6268 94.8651C76.0823 94.6046 75.649 94.2306 75.3271 93.7429C75.0051 93.2505 74.8441 92.6539 74.8441 91.9531C74.8441 91.4134 74.9459 90.9588 75.1495 90.5895C75.3531 90.2202 75.6419 89.9171 76.016 89.6804C76.39 89.4437 76.8327 89.2566 77.3441 89.1193C77.8555 88.982 78.4189 88.8755 79.0344 88.7997C79.6452 88.724 80.1613 88.6577 80.5827 88.6009C81.0089 88.544 81.3332 88.4541 81.5558 88.331C81.7783 88.2079 81.8896 88.009 81.8896 87.7344V87.4787C81.8896 86.7353 81.667 86.1506 81.2219 85.7244C80.7816 85.2936 80.1471 85.0781 79.3185 85.0781C78.5326 85.0781 77.891 85.2509 77.3938 85.5966C76.9014 85.9422 76.5558 86.3494 76.3569 86.8182L75.1566 86.3849C75.4028 85.7884 75.7437 85.3125 76.1793 84.9574C76.6149 84.5975 77.1026 84.3395 77.6424 84.1832C78.1822 84.0223 78.729 83.9418 79.283 83.9418C79.6997 83.9418 80.1329 83.9962 80.5827 84.1051C81.0373 84.214 81.4587 84.4034 81.8469 84.6733C82.2352 84.9384 82.5501 85.3101 82.7915 85.7884C83.033 86.2618 83.1538 86.8632 83.1538 87.5923V95H81.8896V93.2741H81.8114C81.6599 93.5961 81.435 93.9086 81.1367 94.2116C80.8384 94.5147 80.4644 94.7633 80.0146 94.9574C79.5647 95.1515 79.0368 95.2486 78.4308 95.2486ZM78.6012 94.0909C79.2736 94.0909 79.8559 93.9418 80.3484 93.6435C80.8408 93.3452 81.2196 92.9498 81.4847 92.4574C81.7546 91.9602 81.8896 91.4134 81.8896 90.8168V89.2401C81.7949 89.33 81.6362 89.4105 81.4137 89.4815C81.1959 89.5526 80.9426 89.6165 80.6538 89.6733C80.3697 89.7254 80.0856 89.7704 79.8015 89.8082C79.5174 89.8461 79.2617 89.8793 79.0344 89.9077C78.4189 89.9834 77.8933 90.1018 77.4577 90.2628C77.0221 90.4238 76.6883 90.6463 76.4563 90.9304C76.2243 91.2098 76.1083 91.5696 76.1083 92.0099C76.1083 92.6728 76.3451 93.1866 76.8185 93.5511C77.292 93.911 77.8862 94.0909 78.6012 94.0909Z" fill="#444444"/>
</g>
<defs>
<filter id="filter0_dd_5_5082" x="0" y="0" width="97" height="116" filterUnits="userSpaceOnUse" color-interpolation-filters="sRGB">
<feFlood flood-opacity="0" result="BackgroundImageFix"/>
<feColorMatrix in="SourceAlpha" type="matrix" values="0 0 0 0 0 0 0 0 0 0 0 0 0 0 0 0 0 0 127 0" result="hardAlpha"/>
<feOffset dy="2"/>
<feGaussianBlur stdDeviation="2"/>
<feColorMatrix type="matrix" values="0 0 0 0 0.196487 0 0 0 0 0.196487 0 0 0 0 0.279476 0 0 0 0.06 0"/>
<feBlend mode="multiply" in2="BackgroundImageFix" result="effect1_dropShadow_5_5082"/>
<feColorMatrix in="SourceAlpha" type="matrix" values="0 0 0 0 0 0 0 0 0 0 0 0 0 0 0 0 0 0 127 0" result="hardAlpha"/>
<feOffset dy="2"/>
<feGaussianBlur stdDeviation="1"/>
<feColorMatrix type="matrix" values="0 0 0 0 0.196487 0 0 0 0 0.196487 0 0 0 0 0.279476 0 0 0 0.06 0"/>
<feBlend mode="multiply" in2="effect1_dropShadow_5_5082" result="effect2_dropShadow_5_5082"/>
<feBlend mode="normal" in="SourceGraphic" in2="effect2_dropShadow_5_5082" result="shape"/>
</filter>
</defs>
</svg>
