<svg width="44" height="44" viewBox="0 0 44 44" fill="none" xmlns="http://www.w3.org/2000/svg">
<rect x="1" y="1" width="42" height="42" rx="21" stroke="#0C68F4" stroke-width="2"/>
<path d="M22 30.6667C18.88 30.6667 16.3334 28.12 16.3334 25C16.3334 24.4533 16.7867 24 17.3334 24C17.88 24 18.3334 24.4533 18.3334 25C18.3334 27.0267 19.9734 28.6667 22 28.6667C24.0267 28.6667 25.6667 27.0267 25.6667 25C25.6667 24.4533 26.12 24 26.6667 24C27.2134 24 27.6667 24.4533 27.6667 25C27.6667 28.12 25.12 30.6667 22 30.6667Z" fill="#0C68F4"/>
<path d="M12.92 14.5067C12.6667 14.5067 12.4 14.4 12.2133 14.2134C11.8267 13.8267 11.8267 13.1867 12.2133 12.8L17.0533 7.96004C17.44 7.57338 18.08 7.57338 18.4667 7.96004C18.8533 8.34671 18.8533 8.98671 18.4667 9.37338L13.6267 14.2134C13.4267 14.4 13.1733 14.5067 12.92 14.5067Z" fill="#0C68F4"/>
<path d="M31.08 14.5067C30.8266 14.5067 30.5733 14.4134 30.3733 14.2134L25.5333 9.37338C25.1466 8.98671 25.1466 8.34671 25.5333 7.96004C25.92 7.57338 26.56 7.57338 26.9466 7.96004L31.7866 12.8C32.1733 13.1867 32.1733 13.8267 31.7866 14.2134C31.6 14.4 31.3333 14.5067 31.08 14.5067Z" fill="#0C68F4"/>
<path d="M32.9466 20.1334C32.8533 20.1334 32.76 20.1334 32.6666 20.1334H32.36H11.3333C10.4 20.1467 9.33329 20.1467 8.55996 19.3734C7.94663 18.7734 7.66663 17.84 7.66663 16.4667C7.66663 12.8 10.3466 12.8 11.6266 12.8H32.3733C33.6533 12.8 36.3333 12.8 36.3333 16.4667C36.3333 17.8534 36.0533 18.7734 35.44 19.3734C34.7466 20.0667 33.8133 20.1334 32.9466 20.1334ZM11.6266 18.1334H32.68C33.28 18.1467 33.84 18.1467 34.0266 17.96C34.12 17.8667 34.32 17.5467 34.32 16.4667C34.32 14.96 33.9466 14.8 32.36 14.8H11.6266C10.04 14.8 9.66663 14.96 9.66663 16.4667C9.66663 17.5467 9.87996 17.8667 9.95996 17.96C10.1466 18.1334 10.72 18.1334 11.3066 18.1334H11.6266Z" fill="#0C68F4"/>
<path d="M25.8533 36.3334H17.8133C13.04 36.3334 11.9733 33.4934 11.56 31.0267L9.67996 19.4934C9.58662 18.9467 9.95996 18.44 10.5066 18.3467C11.04 18.2534 11.56 18.6267 11.6533 19.1734L13.5333 30.6934C13.92 33.0534 14.72 34.3334 17.8133 34.3334H25.8533C29.28 34.3334 29.6666 33.1334 30.1066 30.8134L32.3466 19.1467C32.4533 18.6 32.9733 18.24 33.52 18.36C34.0666 18.4667 34.4133 18.9867 34.3066 19.5334L32.0666 31.2C31.5466 33.9067 30.68 36.3334 25.8533 36.3334Z" fill="#0C68F4"/>
</svg>
