<svg width="40" height="40" viewBox="0 0 40 40" fill="none" xmlns="http://www.w3.org/2000/svg">
<path d="M23 30.75H17C11.57 30.75 9.25 28.43 9.25 23V17C9.25 11.57 11.57 9.25 17 9.25H19C19.41 9.25 19.75 9.59 19.75 10C19.75 10.41 19.41 10.75 19 10.75H17C12.39 10.75 10.75 12.39 10.75 17V23C10.75 27.61 12.39 29.25 17 29.25H23C27.61 29.25 29.25 27.61 29.25 23V21C29.25 20.59 29.59 20.25 30 20.25C30.41 20.25 30.75 20.59 30.75 21V23C30.75 28.43 28.43 30.75 23 30.75Z" fill="#0C68F4"/>
<path d="M16.5001 25.6901C15.8901 25.6901 15.3301 25.4701 14.9201 25.0701C14.4301 24.5801 14.2201 23.8701 14.3301 23.1201L14.7601 20.1101C14.8401 19.5301 15.2201 18.7801 15.6301 18.3701L23.5101 10.4901C25.5001 8.50006 27.5201 8.50006 29.5101 10.4901C30.6001 11.5801 31.0901 12.6901 30.9901 13.8001C30.9001 14.7001 30.4201 15.5801 29.5101 16.4801L21.6301 24.3601C21.2201 24.7701 20.4701 25.1501 19.8901 25.2301L16.8801 25.6601C16.7501 25.6901 16.6201 25.6901 16.5001 25.6901ZM24.5701 11.5501L16.6901 19.4301C16.5001 19.6201 16.2801 20.0601 16.2401 20.3201L15.8101 23.3301C15.7701 23.6201 15.8301 23.8601 15.9801 24.0101C16.1301 24.1601 16.3701 24.2201 16.6601 24.1801L19.6701 23.7501C19.9301 23.7101 20.3801 23.4901 20.5601 23.3001L28.4401 15.4201C29.0901 14.7701 29.4301 14.1901 29.4801 13.6501C29.5401 13.0001 29.2001 12.3101 28.4401 11.5401C26.8401 9.94006 25.7401 10.3901 24.5701 11.5501Z" fill="#0C68F4"/>
<path d="M27.8501 17.83C27.7801 17.83 27.7101 17.82 27.6501 17.8C25.0201 17.06 22.9301 14.97 22.1901 12.34C22.0801 11.94 22.3101 11.53 22.7101 11.41C23.1101 11.3 23.5201 11.53 23.6301 11.93C24.2301 14.06 25.9201 15.75 28.0501 16.35C28.4501 16.46 28.6801 16.88 28.5701 17.28C28.4801 17.62 28.1801 17.83 27.8501 17.83Z" fill="#0C68F4"/>
</svg>
