<svg width="96" height="116" viewBox="0 0 96 116" fill="none" xmlns="http://www.w3.org/2000/svg">
<g filter="url(#filter0_dd_5_5083)">
<rect x="4" y="2" width="88" height="108" rx="8" fill="white"/>
<path d="M37.0399 42.52C36.6599 42.52 36.2799 42.38 35.9799 42.08C35.3999 41.5 35.3999 40.54 35.9799 39.96L42.0799 33.86C42.6599 33.28 43.6199 33.28 44.1999 33.86C44.7799 34.44 44.7799 35.4 44.1999 35.98L38.0999 42.08C37.7999 42.36 37.4199 42.52 37.0399 42.52Z" fill="#444444"/>
<path d="M43.2 42.58C42.82 42.58 42.44 42.44 42.14 42.14L36.04 36.04C35.46 35.46 35.46 34.5 36.04 33.92C36.62 33.34 37.58 33.34 38.16 33.92L44.26 40.02C44.84 40.6 44.84 41.56 44.26 42.14C43.96 42.44 43.58 42.58 43.2 42.58Z" fill="#444444"/>
<path d="M51.0801 40C49.9801 40 49.0601 39.1 49.0601 38C49.0601 36.9 49.9401 36 51.0401 36H51.0801C52.1801 36 53.0801 36.9 53.0801 38C53.0801 39.1 52.2001 40 51.0801 40Z" fill="#444444"/>
<path d="M58.9599 40C57.8599 40 56.9399 39.1 56.9399 38C56.9399 36.9 57.8199 36 58.9199 36H58.9599C60.0599 36 60.9599 36.9 60.9599 38C60.9599 39.1 60.0599 40 58.9599 40Z" fill="#444444"/>
<path d="M55 43.94C53.9 43.94 53 43.06 53 41.96V41.92C53 40.82 53.9 39.92 55 39.92C56.1 39.92 57 40.82 57 41.92C57 43.02 56.12 43.94 55 43.94Z" fill="#444444"/>
<path d="M55 36.06C53.9 36.06 53 35.18 53 34.08V34.04C53 32.94 53.9 32.04 55 32.04C56.1 32.04 57 32.94 57 34.04C57 35.14 56.12 36.06 55 36.06Z" fill="#444444"/>
<path d="M54 55.5H42C31.14 55.5 26.5 50.86 26.5 40V36C26.5 25.14 31.14 20.5 42 20.5H54C64.86 20.5 69.5 25.14 69.5 36V40C69.5 50.86 64.86 55.5 54 55.5ZM42 23.5C32.78 23.5 29.5 26.78 29.5 36V40C29.5 49.22 32.78 52.5 42 52.5H54C63.22 52.5 66.5 49.22 66.5 40V36C66.5 26.78 63.22 23.5 54 23.5H42Z" fill="#444444"/>
<path d="M49.98 23.5H47.98C46.06 23.5 44.48 21.92 44.48 20C44.48 18.08 46.04 16.5 47.96 16.5C48.28 16.5 48.5 16.28 48.52 16L48.54 13.98C48.56 13.16 49.22 12.5 50.04 12.5H50.06C50.88 12.52 51.56 13.2 51.54 14.02L51.52 16.04C51.5 17.94 49.92 19.5 48.02 19.5C47.7 19.5 47.5 19.72 47.5 20C47.5 20.28 47.72 20.5 48 20.5H50C50.82 20.5 51.5 21.18 51.5 22C51.5 22.82 50.8 23.5 49.98 23.5Z" fill="#444444"/>
<path d="M24.3219 85C24.1893 84.517 23.9952 84.0649 23.7395 83.6435C23.4838 83.2173 23.1666 82.8456 22.7878 82.5284C22.4138 82.2064 21.9805 81.9555 21.4881 81.7756C21.0004 81.5956 20.4559 81.5057 19.8546 81.5057C18.9076 81.5057 18.0601 81.7519 17.312 82.2443C16.5639 82.7367 15.972 83.447 15.5364 84.375C15.1055 85.303 14.8901 86.4205 14.8901 87.7273C14.8901 89.0294 15.1079 90.1444 15.5435 91.0724C15.9791 92.0005 16.5757 92.7131 17.3333 93.2102C18.0956 93.7027 18.9668 93.9489 19.9469 93.9489C20.8418 93.9489 21.6325 93.75 22.3191 93.3523C23.0056 92.9545 23.5407 92.3864 23.9242 91.6477C24.3124 90.9091 24.5018 90.0308 24.4924 89.0128L24.9185 89.1477H20.2594V87.9545H25.785V89.1477C25.785 90.3883 25.534 91.4607 25.0321 92.3651C24.5302 93.2694 23.8413 93.9678 22.9654 94.4602C22.0894 94.9527 21.0833 95.1989 19.9469 95.1989C18.678 95.1989 17.5676 94.8935 16.6159 94.2827C15.6642 93.6671 14.9232 92.8007 14.3929 91.6832C13.8674 90.5611 13.6046 89.2424 13.6046 87.7273C13.6046 86.5862 13.7561 85.5563 14.0591 84.6378C14.3622 83.7192 14.7907 82.9332 15.3446 82.2798C15.9033 81.6264 16.5639 81.1269 17.3262 80.7812C18.0885 80.4309 18.9313 80.2557 19.8546 80.2557C20.65 80.2557 21.3768 80.3812 22.035 80.6321C22.6979 80.883 23.2802 81.2287 23.7821 81.669C24.2888 82.1046 24.7031 82.6089 25.025 83.1818C25.3517 83.75 25.5719 84.3561 25.6855 85H24.3219ZM31.8663 95.2486C31.2082 95.2486 30.6068 95.1207 30.0623 94.8651C29.5178 94.6046 29.0846 94.2306 28.7626 93.7429C28.4406 93.2505 28.2797 92.6539 28.2797 91.9531C28.2797 91.4134 28.3815 90.9588 28.585 90.5895C28.7886 90.2202 29.0775 89.9171 29.4515 89.6804C29.8256 89.4437 30.2683 89.2566 30.7797 89.1193C31.291 88.982 31.8545 88.8755 32.47 88.7997C33.0808 88.724 33.5969 88.6577 34.0183 88.6009C34.4444 88.544 34.7688 88.4541 34.9913 88.331C35.2138 88.2079 35.3251 88.009 35.3251 87.7344V87.4787C35.3251 86.7353 35.1026 86.1506 34.6575 85.7244C34.2172 85.2936 33.5827 85.0781 32.7541 85.0781C31.9681 85.0781 31.3265 85.2509 30.8294 85.5966C30.3369 85.9422 29.9913 86.3494 29.7924 86.8182L28.5922 86.3849C28.8384 85.7884 29.1793 85.3125 29.6149 84.9574C30.0505 84.5975 30.5382 84.3395 31.0779 84.1832C31.6177 84.0223 32.1646 83.9418 32.7186 83.9418C33.1352 83.9418 33.5685 83.9962 34.0183 84.1051C34.4728 84.214 34.8942 84.4034 35.2825 84.6733C35.6708 84.9384 35.9856 85.3101 36.2271 85.7884C36.4686 86.2618 36.5893 86.8632 36.5893 87.5923V95H35.3251V93.2741H35.247C35.0955 93.5961 34.8706 93.9086 34.5723 94.2116C34.274 94.5147 33.8999 94.7633 33.4501 94.9574C33.0003 95.1515 32.4724 95.2486 31.8663 95.2486ZM32.0368 94.0909C32.7091 94.0909 33.2915 93.9418 33.7839 93.6435C34.2763 93.3452 34.6551 92.9498 34.9203 92.4574C35.1902 91.9602 35.3251 91.4134 35.3251 90.8168V89.2401C35.2304 89.33 35.0718 89.4105 34.8493 89.4815C34.6315 89.5526 34.3781 89.6165 34.0893 89.6733C33.8052 89.7254 33.5211 89.7704 33.237 89.8082C32.9529 89.8461 32.6973 89.8793 32.47 89.9077C31.8545 89.9834 31.3289 90.1018 30.8933 90.2628C30.4577 90.4238 30.1239 90.6463 29.8919 90.9304C29.6599 91.2098 29.5439 91.5696 29.5439 92.0099C29.5439 92.6728 29.7806 93.1866 30.2541 93.5511C30.7276 93.911 31.3218 94.0909 32.0368 94.0909ZM39.9522 95V84.0909H41.1809V85.767H41.2946C41.5124 85.2036 41.8746 84.7609 42.3812 84.4389C42.8926 84.1122 43.5057 83.9489 44.2207 83.9489C44.9735 83.9489 45.5914 84.1264 46.0744 84.4815C46.5621 84.8319 46.9267 85.3149 47.1681 85.9304H47.2605C47.5067 85.3243 47.9068 84.8437 48.4608 84.4886C49.0195 84.1288 49.6966 83.9489 50.492 83.9489C51.5053 83.9489 52.3055 84.2685 52.8926 84.9077C53.4797 85.5421 53.7733 86.4702 53.7733 87.6918V95H52.5091V87.6918C52.5091 86.83 52.2889 86.1837 51.8485 85.7528C51.4082 85.322 50.8282 85.1065 50.1085 85.1065C49.2752 85.1065 48.6336 85.3622 48.1838 85.8736C47.734 86.3849 47.5091 87.0336 47.5091 87.8196V95H46.2164V87.5781C46.2164 86.8395 46.0105 86.2429 45.5985 85.7884C45.1866 85.3338 44.6066 85.1065 43.8585 85.1065C43.3566 85.1065 42.9044 85.2296 42.502 85.4759C42.1042 85.7221 41.7894 86.0653 41.5574 86.5057C41.3301 86.9413 41.2164 87.4432 41.2164 88.0114V95H39.9522ZM57.1344 95V84.0909H58.4057V95H57.1344ZM57.7807 82.2159C57.5203 82.2159 57.2978 82.1283 57.1131 81.9531C56.9284 81.7732 56.8361 81.5578 56.8361 81.3068C56.8361 81.0559 56.9284 80.8428 57.1131 80.6676C57.2978 80.4877 57.5203 80.3977 57.7807 80.3977C58.0411 80.3977 58.2637 80.4877 58.4483 80.6676C58.633 80.8428 58.7253 81.0559 58.7253 81.3068C58.7253 81.5578 58.633 81.7732 58.4483 81.9531C58.2637 82.1283 58.0411 82.2159 57.7807 82.2159ZM63.0133 88.1818V95H61.7491V84.0909H62.9778V85.8026H63.0914C63.3471 85.2438 63.7449 84.7964 64.2846 84.4602C64.8291 84.1193 65.5015 83.9489 66.3017 83.9489C67.0356 83.9489 67.6795 84.1027 68.2335 84.4105C68.7922 84.7135 69.2254 85.161 69.5332 85.7528C69.8457 86.3447 70.002 87.0715 70.002 87.9332V95H68.7377V88.0114C68.7377 87.1165 68.4868 86.4086 67.9849 85.8878C67.4877 85.367 66.8201 85.1065 65.9821 85.1065C65.4092 85.1065 64.9002 85.2296 64.4551 85.4759C64.01 85.7221 63.6573 86.0772 63.3968 86.5412C63.1412 87.0005 63.0133 87.5473 63.0133 88.1818ZM77.4931 99.3182C76.7497 99.3182 76.0987 99.2211 75.54 99.027C74.9812 98.8376 74.5101 98.5772 74.1266 98.2457C73.7431 97.9143 73.4448 97.5426 73.2317 97.1307L74.2686 96.4489C74.4249 96.7235 74.6332 96.9934 74.8936 97.2585C75.1588 97.5237 75.5021 97.7438 75.9235 97.919C76.3496 98.0942 76.8728 98.1818 77.4931 98.1818C78.459 98.1818 79.2379 97.9403 79.8297 97.4574C80.4263 96.9744 80.7246 96.224 80.7246 95.206V92.7486H80.611C80.4642 93.08 80.2535 93.4115 79.9789 93.7429C79.7042 94.0696 79.3444 94.3419 78.8993 94.5597C78.459 94.7775 77.9121 94.8864 77.2587 94.8864C76.3875 94.8864 75.6133 94.6709 74.9363 94.2401C74.2639 93.8092 73.7336 93.1937 73.3453 92.3935C72.9618 91.5885 72.7701 90.6297 72.7701 89.517C72.7701 88.4138 72.9571 87.4432 73.3311 86.6051C73.7099 85.767 74.2379 85.1136 74.915 84.6449C75.592 84.1761 76.3804 83.9418 77.28 83.9418C77.9476 83.9418 78.5016 84.0601 78.9419 84.2969C79.3823 84.5289 79.735 84.8177 80.0002 85.1634C80.2701 85.509 80.4808 85.8452 80.6323 86.1719H80.7601V84.0909H81.9959V95.2841C81.9959 96.2074 81.7994 96.9673 81.4064 97.5639C81.0134 98.1605 80.4784 98.6009 79.8013 98.8849C79.1242 99.1738 78.3548 99.3182 77.4931 99.3182ZM77.4078 93.7287C78.1086 93.7287 78.7076 93.5606 79.2047 93.2244C79.7019 92.8835 80.083 92.3958 80.3482 91.7614C80.6133 91.1269 80.7459 90.3717 80.7459 89.4957C80.7459 88.6435 80.6157 87.8883 80.3553 87.2301C80.0949 86.5672 79.7161 86.0464 79.2189 85.6676C78.7265 85.2841 78.1228 85.0923 77.4078 85.0923C76.6787 85.0923 76.0632 85.2888 75.5613 85.6818C75.0594 86.0748 74.6806 86.6051 74.4249 87.2727C74.1692 87.9356 74.0414 88.6766 74.0414 89.4957C74.0414 90.3291 74.1716 91.0653 74.432 91.7045C74.6924 92.339 75.0736 92.8362 75.5755 93.196C76.0774 93.5511 76.6882 93.7287 77.4078 93.7287Z" fill="#444444"/>
</g>
<defs>
<filter id="filter0_dd_5_5083" x="0" y="0" width="96" height="116" filterUnits="userSpaceOnUse" color-interpolation-filters="sRGB">
<feFlood flood-opacity="0" result="BackgroundImageFix"/>
<feColorMatrix in="SourceAlpha" type="matrix" values="0 0 0 0 0 0 0 0 0 0 0 0 0 0 0 0 0 0 127 0" result="hardAlpha"/>
<feOffset dy="2"/>
<feGaussianBlur stdDeviation="2"/>
<feColorMatrix type="matrix" values="0 0 0 0 0.196487 0 0 0 0 0.196487 0 0 0 0 0.279476 0 0 0 0.06 0"/>
<feBlend mode="multiply" in2="BackgroundImageFix" result="effect1_dropShadow_5_5083"/>
<feColorMatrix in="SourceAlpha" type="matrix" values="0 0 0 0 0 0 0 0 0 0 0 0 0 0 0 0 0 0 127 0" result="hardAlpha"/>
<feOffset dy="2"/>
<feGaussianBlur stdDeviation="1"/>
<feColorMatrix type="matrix" values="0 0 0 0 0.196487 0 0 0 0 0.196487 0 0 0 0 0.279476 0 0 0 0.06 0"/>
<feBlend mode="multiply" in2="effect1_dropShadow_5_5083" result="effect2_dropShadow_5_5083"/>
<feBlend mode="normal" in="SourceGraphic" in2="effect2_dropShadow_5_5083" result="shape"/>
</filter>
</defs>
</svg>
