<svg width="30" height="29" viewBox="0 0 30 29" fill="none" xmlns="http://www.w3.org/2000/svg">
<g id="vuesax/outline/headphones">
<g id="headphones">
<path id="Vector" d="M10.9823 15.4324C10.4979 15.4324 10.0961 15.0306 10.0961 14.5462V8.89848C10.0961 8.41405 10.4979 8.01233 10.9823 8.01233C11.4667 8.01233 11.8684 8.41405 11.8684 8.89848V14.5462C11.8684 15.0306 11.4667 15.4324 10.9823 15.4324Z" fill="#292D32"/>
<path id="Vector_2" d="M10.9823 27.2477C10.4979 27.2477 10.0961 26.8459 10.0961 26.3615V22.8169C10.0961 22.3325 10.4979 21.9308 10.9823 21.9308C11.4667 21.9308 11.8684 22.3325 11.8684 22.8169V26.3615C11.8684 26.8459 11.4667 27.2477 10.9823 27.2477Z" fill="#292D32"/>
<path id="Vector_3" d="M19.253 27.2477C18.7685 27.2477 18.3668 26.8459 18.3668 26.3615V8.89848C18.3668 8.41405 18.7685 8.01233 19.253 8.01233C19.7374 8.01233 20.1391 8.41405 20.1391 8.89848V26.3615C20.1391 26.8459 19.7374 27.2477 19.253 27.2477Z" fill="#292D32"/>
<path id="Vector_4" d="M10.7459 9.64293H8.08741C7.74477 9.64293 7.4494 9.45391 7.29581 9.14671C7.14221 8.83951 7.17766 8.48508 7.37852 8.21333C7.60301 7.91794 7.73297 7.53983 7.73297 7.14992V6.08659C7.73297 5.7085 7.60301 5.33038 7.37852 5.02318C7.17766 4.75143 7.14221 4.397 7.29581 4.0898C7.4494 3.79442 7.75658 3.59351 8.08741 3.59351H10.7459C12.4118 3.59351 13.7588 4.94051 13.7588 6.60646C13.7588 7.42172 13.4397 8.17789 12.8608 8.74503C12.3173 9.32398 11.5611 9.64293 10.7459 9.64293ZM9.43437 7.87064H10.7459C11.0767 7.87064 11.3839 7.74068 11.6084 7.51619C11.8565 7.27989 11.9865 6.97269 11.9865 6.63005C11.9865 5.94476 11.4311 5.38945 10.7459 5.38945H9.43437C9.48163 5.62576 9.50526 5.86204 9.50526 6.09834V7.16175C9.50526 7.39805 9.48163 7.63433 9.43437 7.87064Z" fill="#292D32"/>
<path id="Vector_5" d="M5.9605 10.7063C5.18069 10.7063 4.14095 10.4581 3.05394 9.48928C2.68767 9.15845 2.42773 8.56772 2.42773 8.04785V5.28304C2.42773 4.82224 2.64041 4.27875 2.94761 3.95973C4.04643 2.81365 5.1807 2.56553 5.93688 2.55371C5.94869 2.55371 5.96051 2.55371 5.97232 2.55371C6.90573 2.55371 7.82732 2.93181 8.47716 3.59346C8.59531 3.71162 8.71348 3.85343 8.81981 3.99521C9.25698 4.57416 9.50508 5.3303 9.50508 6.0983V7.1617C9.50508 7.9297 9.25696 8.68586 8.79616 9.28844C8.20539 10.0801 7.29561 10.5881 6.31494 10.6826C6.2086 10.6945 6.07865 10.7063 5.9605 10.7063ZM5.9605 4.326C5.94868 4.326 5.94869 4.326 5.93688 4.326C5.3343 4.33782 4.74351 4.63325 4.21182 5.18857C4.21182 5.18857 4.1882 5.27125 4.1882 5.30669V8.05968C4.1882 8.08331 4.22363 8.16601 4.24726 8.20146C4.84984 8.73314 5.51151 9.00489 6.13772 8.934C6.63396 8.88674 7.07115 8.63858 7.37835 8.23686C7.60284 7.94148 7.73279 7.56344 7.73279 7.17353V6.11013C7.73279 5.73204 7.60284 5.35399 7.37835 5.04679C7.31927 4.95227 7.26018 4.90496 7.21291 4.84588C6.88209 4.51505 6.43311 4.326 5.9605 4.326Z" fill="#292D32"/>
<path id="Vector_6" d="M22.1476 9.64284H19.4892C18.6739 9.64284 17.9177 9.32388 17.3506 8.74493C16.7953 8.20143 16.4763 7.44521 16.4763 6.62995C16.4763 4.96399 17.8232 3.61707 19.4892 3.61707H22.1476C22.4784 3.61707 22.7856 3.80609 22.9392 4.11329C23.0928 4.40867 23.0574 4.77499 22.8565 5.04674C22.632 5.34212 22.5021 5.72017 22.5021 6.11008V7.17348C22.5021 7.56339 22.632 7.92962 22.8565 8.23681C23.0574 8.50857 23.0928 8.86307 22.9392 9.17027C22.7974 9.45384 22.4903 9.64284 22.1476 9.64284ZM19.4892 5.38936C18.8039 5.38936 18.2486 5.94466 18.2486 6.62995C18.2486 6.96078 18.3785 7.26803 18.603 7.49252C18.8393 7.74064 19.1465 7.87054 19.4892 7.87054H20.8007C20.7534 7.63424 20.7298 7.39796 20.7298 7.16165V6.09825C20.7298 5.86194 20.7534 5.62567 20.8007 5.38936H19.4892Z" fill="#292D32"/>
<path id="Vector_7" d="M24.2748 10.7063C24.1448 10.7063 24.0267 10.6945 23.9085 10.6945C22.9278 10.6 22.0299 10.0919 21.4273 9.30028C20.9665 8.6977 20.7184 7.94154 20.7184 7.17355V6.11014C20.7184 5.34215 20.9665 4.58598 21.4273 3.9834C21.51 3.86525 21.6281 3.72346 21.7463 3.6053C22.4079 2.94365 23.3177 2.56555 24.2512 2.56555C24.263 2.56555 24.2748 2.56555 24.2866 2.56555C25.0428 2.57737 26.177 2.82549 27.2759 3.97157C27.5831 4.29059 27.7957 4.83409 27.7957 5.29488V8.05969C27.7957 8.57957 27.5358 9.17028 27.1695 9.4893C26.0943 10.4582 25.0546 10.7063 24.2748 10.7063ZM24.2748 4.32602C23.8022 4.32602 23.3414 4.51507 23.0224 4.84589C22.9751 4.89316 22.9278 4.95225 22.8806 5.01133C22.6325 5.34215 22.5025 5.72022 22.5025 6.09831V7.16172C22.5025 7.55162 22.6324 7.91793 22.8569 8.22512C23.1641 8.62684 23.6013 8.87494 24.0975 8.93401C24.7238 9.0049 25.3854 8.73314 26.0234 8.17782C26.0234 8.17782 26.0471 8.09514 26.0589 8.05969V5.30671C26.0589 5.28308 26.0234 5.20039 26.0116 5.17676C25.5036 4.64507 24.9128 4.34967 24.3102 4.34967C24.2866 4.32604 24.2866 4.32602 24.2748 4.32602Z" fill="#292D32"/>
<path id="Vector_8" d="M10.9823 23.7032C9.51717 23.7032 8.32382 22.5098 8.32382 21.0447V16.3186C8.32382 14.8535 9.51717 13.6602 10.9823 13.6602C12.4474 13.6602 13.6407 14.8535 13.6407 16.3186V21.0447C13.6407 22.5098 12.4474 23.7032 10.9823 23.7032ZM10.9823 15.4325C10.4978 15.4325 10.0961 15.8342 10.0961 16.3186V21.0447C10.0961 21.5291 10.4978 21.9309 10.9823 21.9309C11.4667 21.9309 11.8684 21.5291 11.8684 21.0447V16.3186C11.8684 15.8342 11.4667 15.4325 10.9823 15.4325Z" fill="#292D32"/>
</g>
</g>
</svg>
