<svg width="40" height="34" viewBox="0 0 40 34" fill="none" xmlns="http://www.w3.org/2000/svg">
<g id="icon">
<g id="Group 61428">
<g id="Group 8">
<path id="Vector" d="M34.4426 23.0991H5.55731C4.20619 23.0991 3.11108 22.004 3.11108 20.6529V5.55731C3.11108 4.2062 4.20619 3.11108 5.55731 3.11108H34.4422C35.7933 3.11108 36.8884 4.2062 36.8884 5.55731V20.6524C36.8889 22.004 35.7937 23.0991 34.4426 23.0991Z" fill="#AECDFB"/>
<g id="Group">
<path id="Vector_2" d="M24.0195 15.1742H9.25548C9.01015 15.1742 8.81104 14.9751 8.81104 14.7298C8.81104 14.4845 9.01015 14.2853 9.25548 14.2853H24.0195C24.2653 14.2853 24.4639 14.4845 24.4639 14.7298C24.4639 14.9751 24.2653 15.1742 24.0195 15.1742Z" fill="#0C0C0C"/>
<path id="Vector_3" d="M23.008 11.0218H5.74132C5.49599 11.0218 5.29688 10.8227 5.29688 10.5773C5.29688 10.332 5.49599 10.1329 5.74132 10.1329H23.008C23.2538 10.1329 23.4524 10.332 23.4524 10.5773C23.4524 10.8227 23.2533 11.0218 23.008 11.0218Z" fill="#0C0C0C"/>
<path id="Vector_4" d="M11.272 26.2102H2.44178C1.09556 26.2102 0 25.1147 0 23.7684V2.44178C0 1.09556 1.09556 0 2.44178 0H37.5582C38.9044 0 40 1.09556 40 2.44178V4.15822C40 4.40355 39.8013 4.60266 39.5555 4.60266C39.3098 4.60266 39.1111 4.40355 39.1111 4.15822V2.44178C39.1111 1.58533 38.4146 0.888888 37.5582 0.888888H2.44178C1.58533 0.888888 0.888889 1.58533 0.888889 2.44178V23.768C0.888889 24.6244 1.58533 25.3209 2.44178 25.3209H11.272C11.5173 25.3209 11.7164 25.5195 11.7164 25.7653C11.7164 26.0111 11.5173 26.2102 11.272 26.2102Z" fill="#0C0C0C"/>
<path id="Vector_5" d="M20.3634 26.2102H16.4928C16.2475 26.2102 16.0483 26.0116 16.0483 25.7658C16.0483 25.52 16.2475 25.3214 16.4928 25.3214H20.3634C20.6092 25.3214 20.8079 25.52 20.8079 25.7658C20.8079 26.0116 20.6092 26.2102 20.3634 26.2102Z" fill="#0C0C0C"/>
<path id="Vector_6" d="M37.5581 26.2102H24.2342C23.9884 26.2102 23.7897 26.0115 23.7897 25.7657C23.7897 25.52 23.9884 25.3213 24.2342 25.3213H37.5581C38.4146 25.3213 39.111 24.6249 39.111 23.7684V21.9009H4.56749C4.32216 21.9009 4.12305 21.7022 4.12305 21.4564C4.12305 21.2106 4.32216 21.012 4.56749 21.012H39.5555C39.8013 21.012 39.9999 21.2106 39.9999 21.4564V23.7684C39.9999 25.1146 38.9044 26.2102 37.5581 26.2102Z" fill="#0C0C0C"/>
<path id="Vector_7" d="M29.1377 33.6338H11.5897C11.3444 33.6338 11.1453 33.4351 11.1453 33.1893C11.1453 31.4134 12.5902 29.9685 14.3666 29.9685H14.6835L16.0697 25.6302C16.1444 25.3969 16.3959 25.2662 16.6284 25.3427C16.8622 25.4174 16.991 25.6671 16.9164 25.9014L15.4315 30.5485C15.3728 30.7325 15.2013 30.8574 15.0079 30.8574H14.3662C13.2319 30.8574 12.2844 31.6707 12.0764 32.7449H28.6501C28.4421 31.6707 27.4941 30.8574 26.3604 30.8574H25.719C25.5257 30.8574 25.3546 30.7325 25.2959 30.5485L23.811 25.9014C23.7359 25.6676 23.8653 25.4174 24.0986 25.3427C24.3337 25.2649 24.5826 25.3969 24.6573 25.6302L26.0435 29.9685H26.3604C28.1368 29.9685 29.5817 31.4134 29.5817 33.1893C29.5821 33.4351 29.383 33.6338 29.1377 33.6338Z" fill="#0C0C0C"/>
<path id="Vector_8" d="M20.8147 23.7733H19.9125C19.6671 23.7733 19.468 23.5747 19.468 23.3289C19.468 23.0831 19.6671 22.8845 19.9125 22.8845H20.8147C21.0605 22.8845 21.2591 23.0831 21.2591 23.3289C21.2591 23.5747 21.0605 23.7733 20.8147 23.7733Z" fill="#0C0C0C"/>
</g>
</g>
</g>
<path id="Vector_9" d="M35.6884 14.3731C35.6212 14.3731 35.5537 14.357 35.4916 14.3245L32.706 12.8599L29.92 14.3245C29.7781 14.3997 29.6053 14.3874 29.4752 14.2924C29.3451 14.1978 29.28 14.0377 29.307 13.8793L29.8389 10.7769L27.5856 8.58017C27.4707 8.4678 27.4289 8.3001 27.4787 8.14717C27.5286 7.99425 27.6608 7.88272 27.8196 7.85949L30.9343 7.40706L32.3275 4.58474C32.4694 4.29622 32.943 4.29622 33.0849 4.58474L34.4781 7.40706L37.5923 7.85949C37.7516 7.88272 37.8834 7.99425 37.9337 8.14717C37.9831 8.3001 37.9421 8.4678 37.8268 8.58017L35.5731 10.7769L36.1049 13.8793C36.132 14.0377 36.0669 14.1978 35.9372 14.2924C35.8629 14.346 35.7759 14.3731 35.6884 14.3731ZM28.7883 8.57299L30.5879 10.3274C30.6872 10.4241 30.7328 10.5644 30.7091 10.7012L30.2841 13.1784L32.5091 12.0087C32.6329 11.9436 32.7791 11.9436 32.9028 12.0087L35.1274 13.1784L34.7029 10.7012C34.6792 10.5644 34.7248 10.4245 34.8241 10.3274L36.6241 8.57299L34.1368 8.21181C33.9991 8.19195 33.8804 8.10535 33.8187 7.98073L32.706 5.72617L31.5933 7.97989C31.5316 8.10451 31.4129 8.19111 31.2752 8.21096L28.7883 8.57299Z" fill="#0C0C0C"/>
</g>
</svg>
