<svg width="41" height="44" viewBox="0 0 41 44" fill="none" xmlns="http://www.w3.org/2000/svg">
<g id="icon">
<g id="Group 7">
<path id="Vector" d="M20.4997 29.2147C24.6006 29.2147 27.9251 25.8902 27.9251 21.7892C27.9251 17.6883 24.6006 14.3638 20.4997 14.3638C16.3987 14.3638 13.0742 17.6883 13.0742 21.7892C13.0742 25.8902 16.3987 29.2147 20.4997 29.2147Z" fill="#AECDFB"/>
<g id="Group">
<path id="Vector_2" d="M20.4997 43.7703C20.4438 43.7703 20.3874 43.7606 20.332 43.7402C8.2712 39.3101 1.59957 28.0776 0.50093 10.3548C0.48634 10.118 0.644887 9.90498 0.875899 9.851C6.38954 8.569 11.2714 6.5575 15.3849 3.87192C15.6101 3.72505 15.9111 3.78827 16.058 4.01345C16.2049 4.23862 16.1416 4.54015 15.9165 4.68654C11.8079 7.36871 6.95856 9.39238 1.49793 10.7036C2.65736 28.0056 8.93019 38.5164 20.667 42.8278C20.9195 42.9202 21.0483 43.1999 20.9559 43.4518C20.884 43.6483 20.6977 43.7703 20.4997 43.7703Z" fill="#0C0C0C"/>
<path id="Vector_3" d="M20.5003 43.7703C20.402 43.7703 20.3047 43.7402 20.2221 43.6828C20.0917 43.5919 20.0139 43.443 20.0139 43.284V31.5272C20.0139 31.2583 20.2318 31.0409 20.5003 31.0409C20.7687 31.0409 20.9866 31.2583 20.9866 31.5272V42.5788C32.3023 38.12 38.364 27.6807 39.5016 10.7036C32.0742 8.92063 25.8534 5.85571 20.9866 1.5832V8.24947C20.9866 8.51793 20.7687 8.73582 20.5003 8.73582C20.2318 8.73582 20.0139 8.51793 20.0139 8.24947V0.486018C20.0139 0.292455 20.1287 0.116886 20.3067 0.0400437C20.4847 -0.0367982 20.6914 -0.00129529 20.8324 0.131476C25.7712 4.75317 32.2614 8.02381 40.1241 9.85148C40.3556 9.90547 40.5141 10.1185 40.4991 10.3553C39.4004 28.0776 32.7288 39.3106 20.668 43.7402C20.6136 43.7601 20.5567 43.7703 20.5003 43.7703Z" fill="#0C0C0C"/>
<path id="Vector_4" d="M20.4998 32.0135C18.1226 32.0135 15.8115 31.1741 13.9911 29.6509C13.7854 29.4787 13.7582 29.1718 13.9303 28.9661C14.1025 28.7599 14.4089 28.7322 14.6156 28.9053C16.2609 30.2826 18.3507 31.0413 20.4998 31.0413C25.5568 31.0413 29.6707 26.9274 29.6707 21.8704C29.6707 16.8134 25.5568 12.6985 20.4998 12.6985C15.4428 12.6985 11.3284 16.8125 11.3284 21.8699C11.3284 22.1384 11.1105 22.3563 10.8421 22.3563C10.5736 22.3563 10.3557 22.1384 10.3557 21.8699C10.3557 16.2765 14.9064 11.7258 20.4998 11.7258C26.0932 11.7258 30.6434 16.2765 30.6434 21.8699C30.6434 27.4633 26.0932 32.0135 20.4998 32.0135Z" fill="#0C0C0C"/>
<path id="Vector_5" d="M19.8771 25.6152C19.7375 25.6152 19.6042 25.5548 19.5123 25.4503L16.3501 21.8567C16.1726 21.6549 16.1921 21.348 16.3939 21.1705C16.5957 20.9925 16.9031 21.0129 17.0801 21.2143L19.8746 24.3891L25.2059 18.2286C25.381 18.0253 25.6888 18.0039 25.8916 18.179C26.0949 18.3551 26.1168 18.6619 25.9412 18.8652L20.2447 25.4469C20.1528 25.5534 20.0196 25.6147 19.879 25.6152C19.8785 25.6152 19.8775 25.6152 19.8771 25.6152Z" fill="#0C0C0C"/>
</g>
</g>
</g>
</svg>
