<svg width="24" height="24" viewBox="0 0 24 24" fill="none" xmlns="http://www.w3.org/2000/svg">
<path d="M21.6954 7.97978C21.6486 6.94155 21.4809 6.23119 21.2429 5.61059C20.9933 4.97048 20.6617 4.42404 20.1195 3.88541C19.5773 3.34678 19.0351 3.00721 18.3953 2.76131C17.7751 2.51932 17.0652 2.35538 16.0276 2.30855C14.9861 2.26171 14.6545 2.25 12.0098 2.25C9.36114 2.25 9.02957 2.26171 7.99196 2.30855C6.95436 2.35538 6.24442 2.52322 5.62419 2.76131C4.98056 3.01111 4.43445 3.34287 3.89615 3.88541C3.35784 4.42794 3.01847 4.97048 2.77272 5.61059C2.53477 6.23119 2.36704 6.94155 2.32023 7.97978C2.27342 9.02192 2.26172 9.35368 2.26172 12C2.26172 14.6502 2.27342 14.982 2.32023 16.0202C2.36704 17.0584 2.53477 17.7688 2.77272 18.3894C3.02237 19.0295 3.35394 19.576 3.89615 20.1146C4.43445 20.6571 4.98056 20.9928 5.62029 21.2387C6.24051 21.4807 6.95046 21.6446 7.98806 21.6915C9.02957 21.7383 9.36114 21.75 12.0059 21.75C14.6545 21.75 14.9861 21.7383 16.0237 21.6915C17.0613 21.6446 17.7712 21.4768 18.3914 21.2387C19.0312 20.9889 19.5773 20.6571 20.1156 20.1146C20.6539 19.5721 20.9933 19.0295 21.239 18.3894C21.4809 17.7688 21.6447 17.0584 21.6915 16.0202C21.7383 14.9781 21.75 14.6463 21.75 12C21.75 9.35368 21.7422 9.01801 21.6954 7.97978ZM19.944 15.9422C19.901 16.8945 19.7411 17.4136 19.6085 17.7532C19.433 18.206 19.2184 18.5338 18.8751 18.8773C18.5319 19.2208 18.2081 19.4276 17.7517 19.6111C17.4084 19.7438 16.8896 19.9038 15.9418 19.9468C14.9158 19.9936 14.6077 20.0053 12.002 20.0053C9.39625 20.0053 9.08808 19.9936 8.06218 19.9468C7.11039 19.9038 6.59158 19.7438 6.25222 19.6111C5.79973 19.4354 5.47206 19.2208 5.12879 18.8773C4.78552 18.5338 4.57878 18.2099 4.39545 17.7532C4.26282 17.4097 4.10289 16.8906 4.05998 15.9422C4.01317 14.9156 4.00147 14.6073 4.00147 12C4.00147 9.39271 4.01317 9.08437 4.05998 8.05785C4.10289 7.10548 4.26282 6.58637 4.39545 6.2468C4.57098 5.79404 4.78552 5.46617 5.12879 5.1227C5.47206 4.77922 5.79583 4.57236 6.25222 4.38891C6.59549 4.25621 7.11429 4.09618 8.06218 4.05324C9.08808 4.00641 9.39625 3.9947 12.002 3.9947C14.6077 3.9947 14.9158 4.00641 15.9418 4.05324C16.8935 4.09618 17.4123 4.25621 17.7517 4.38891C18.2042 4.56455 18.5319 4.77922 18.8751 5.1227C19.2184 5.46617 19.4252 5.79013 19.6085 6.2468C19.7411 6.59027 19.901 7.10939 19.944 8.05785C19.9908 9.08437 20.0025 9.39271 20.0025 12C20.0025 14.6073 19.9869 14.9156 19.944 15.9422Z" fill="url(#paint0_linear_150_422)"/>
<path d="M12.002 6.9884C9.23242 6.9884 6.99338 9.2327 6.99338 12C6.99338 14.7712 9.23633 17.0116 12.002 17.0116C14.7676 17.0116 17.0106 14.7634 17.0106 12C17.0106 9.2288 14.7715 6.9884 12.002 6.9884ZM12.002 15.2513C10.2076 15.2513 8.75263 13.7955 8.75263 12C8.75263 10.2046 10.2076 8.74871 12.002 8.74871C13.7963 8.74871 15.2513 10.2046 15.2513 12C15.2513 13.7955 13.7963 15.2513 12.002 15.2513Z" fill="url(#paint1_linear_150_422)"/>
<path d="M17.2056 7.96413C17.8519 7.96413 18.3758 7.43988 18.3758 6.79319C18.3758 6.1465 17.8519 5.62225 17.2056 5.62225C16.5593 5.62225 16.0354 6.1465 16.0354 6.79319C16.0354 7.43988 16.5593 7.96413 17.2056 7.96413Z" fill="#BC30A0"/>
<path d="M2.25 12C2.25 14.6502 2.2617 14.982 2.30851 16.0202C2.35532 17.0584 2.52305 17.7688 2.761 18.3894C3.01065 19.0295 3.34222 19.576 3.88443 20.1146C4.42273 20.6532 4.96884 20.9928 5.60857 21.2387C6.2288 21.4807 6.93874 21.6446 7.97635 21.6915C9.01785 21.7383 9.34942 21.75 11.9941 21.75C14.6428 21.75 14.9743 21.7383 16.012 21.6915C17.0496 21.6446 17.7595 21.4768 18.3797 21.2387C19.0195 20.9889 19.5656 20.6571 20.1039 20.1146C20.6422 19.576 20.9815 19.0295 21.2273 18.3894C21.4691 17.7688 21.633 17.0584 21.6798 16.0202C21.7266 14.9781 21.7383 14.6463 21.7383 12C21.7383 9.34978 21.7266 9.01801 21.6798 7.97978C21.633 6.94155 21.4652 6.23119 21.2273 5.61059C20.9776 4.97048 20.6461 4.42404 20.1039 3.88541C19.5695 3.34287 19.0234 3.00721 18.3836 2.76131C17.7634 2.51932 17.0535 2.35538 16.0159 2.30855C14.9743 2.26171 14.6428 2.25 11.998 2.25C9.34942 2.25 9.01785 2.26171 7.98025 2.30855C6.94264 2.35538 6.2327 2.52322 5.61247 2.76131C4.97274 3.01111 4.42664 3.34287 3.88833 3.88541C3.35002 4.42794 3.01065 4.97048 2.7649 5.61059C2.52305 6.23119 2.35532 6.94155 2.30851 7.97978C2.2617 9.01801 2.25 9.34978 2.25 12ZM4.00925 12C4.00925 9.39662 4.02095 9.08437 4.06776 8.05785C4.11067 7.10548 4.2706 6.58637 4.40323 6.2468C4.57877 5.79404 4.79331 5.46617 5.13658 5.1227C5.47985 4.77922 5.80361 4.57236 6.26 4.38891C6.60327 4.25621 7.12207 4.09618 8.06996 4.05324C9.09587 4.00641 9.40403 3.9947 12.0098 3.9947C14.6155 3.9947 14.9236 4.00641 15.9495 4.05324C16.9013 4.09618 17.4201 4.25621 17.7595 4.38891C18.212 4.56455 18.5397 4.77922 18.8829 5.1227C19.2262 5.46617 19.4329 5.79013 19.6163 6.2468C19.7489 6.59027 19.9088 7.10939 19.9517 8.05785C19.9985 9.08437 20.0103 9.39271 20.0103 12C20.0103 14.6073 19.9985 14.9156 19.9517 15.9422C19.9088 16.8945 19.7489 17.4136 19.6163 17.7532C19.4407 18.206 19.2262 18.5338 18.8829 18.8773C18.5397 19.2208 18.2159 19.4276 17.7595 19.6111C17.4162 19.7438 16.8974 19.9038 15.9495 19.9468C14.9236 19.9936 14.6155 20.0053 12.0098 20.0053C9.40403 20.0053 9.09587 19.9936 8.06996 19.9468C7.11817 19.9038 6.59937 19.7438 6.26 19.6111C5.80751 19.4354 5.47985 19.2208 5.13658 18.8773C4.79331 18.5338 4.58657 18.2099 4.40323 17.7532C4.2706 17.4097 4.11067 16.8906 4.06776 15.9422C4.01705 14.9156 4.00925 14.6034 4.00925 12Z" fill="url(#paint2_linear_150_422)"/>
<defs>
<linearGradient id="paint0_linear_150_422" x1="18.7401" y1="3.7411" x2="4.63311" y2="21.0249" gradientUnits="userSpaceOnUse">
<stop stop-color="#AE3DAE"/>
<stop offset="0.0468721" stop-color="#B23BA6"/>
<stop offset="0.1216" stop-color="#BD368E"/>
<stop offset="0.2148" stop-color="#CE2E69"/>
<stop offset="0.3216" stop-color="#E62335"/>
<stop offset="0.418" stop-color="#FF1800"/>
</linearGradient>
<linearGradient id="paint1_linear_150_422" x1="14.3906" y1="7.98046" x2="9.26587" y2="16.5918" gradientUnits="userSpaceOnUse">
<stop stop-color="#E12F6A"/>
<stop offset="0.1705" stop-color="#EA3751"/>
<stop offset="0.3563" stop-color="#F13D3E"/>
<stop offset="0.5467" stop-color="#F64133"/>
<stop offset="0.7469" stop-color="#F7422F"/>
<stop offset="0.7946" stop-color="#F74C2F"/>
<stop offset="0.8743" stop-color="#F7652F"/>
<stop offset="0.9757" stop-color="#F78F2E"/>
<stop offset="1" stop-color="#F79A2E"/>
</linearGradient>
<linearGradient id="paint2_linear_150_422" x1="16.4184" y1="1.44722" x2="7.78629" y2="22.0233" gradientUnits="userSpaceOnUse">
<stop offset="0.2341" stop-color="#9E35A5" stop-opacity="0"/>
<stop offset="0.4512" stop-color="#D42F7F" stop-opacity="0.5"/>
<stop offset="0.7524" stop-color="#F7772E"/>
<stop offset="0.9624" stop-color="#FEF780"/>
</linearGradient>
</defs>
</svg>
