<svg width="92" height="24" viewBox="0 0 92 24" fill="none" xmlns="http://www.w3.org/2000/svg">
<path d="M0 3H8V11H0V3Z" fill="#1E5EFF"/>
<path d="M0 13H8V21H0V13Z" fill="#1E5EFF"/>
<path d="M10 3L14.5 7L18 11H10V3Z" fill="#1E5EFF"/>
<path d="M10 13H18L14.5 17L10 21V13Z" fill="#1E5EFF"/>
<path d="M25.3746 17.5V7.31818H26.6075V11.8523H32.0365V7.31818H33.2694V17.5H32.0365V12.946H26.6075V17.5H25.3746ZM43.8117 7.31818V17.5H42.6185L37.0702 9.50568H36.9708V17.5H35.7378V7.31818H36.931L42.4992 15.3324H42.5986V7.31818H43.8117ZM53.2391 10.5C53.1297 10.1652 52.9855 9.86529 52.8066 9.60014C52.6309 9.33168 52.4204 9.10298 52.1752 8.91406C51.9332 8.72514 51.6581 8.58097 51.3499 8.48153C51.0416 8.3821 50.7036 8.33239 50.3357 8.33239C49.7325 8.33239 49.1839 8.48816 48.6901 8.79972C48.1962 9.11127 47.8035 9.57031 47.5118 10.1768C47.2201 10.7834 47.0743 11.5275 47.0743 12.4091C47.0743 13.2907 47.2218 14.0348 47.5168 14.6413C47.8118 15.2479 48.2111 15.7069 48.7149 16.0185C49.2187 16.33 49.7855 16.4858 50.4152 16.4858C50.9986 16.4858 51.5123 16.3615 51.9564 16.1129C52.4039 15.861 52.7519 15.5064 53.0004 15.049C53.2523 14.5883 53.3783 14.0464 53.3783 13.4233L53.7561 13.5028H50.6936V12.4091H54.5715V13.5028C54.5715 14.3414 54.3925 15.0705 54.0345 15.6903C53.6799 16.3101 53.1894 16.7907 52.5629 17.1321C51.9398 17.4702 51.2239 17.6392 50.4152 17.6392C49.5137 17.6392 48.7216 17.4271 48.0388 17.0028C47.3593 16.5786 46.829 15.9754 46.4479 15.1932C46.07 14.411 45.8811 13.483 45.8811 12.4091C45.8811 11.6037 45.9888 10.8795 46.2043 10.2365C46.423 9.5902 46.7313 9.04001 47.129 8.58594C47.5267 8.13187 47.9974 7.78385 48.5409 7.5419C49.0845 7.29995 49.6827 7.17898 50.3357 7.17898C50.8726 7.17898 51.3731 7.26018 51.8371 7.42258C52.3044 7.58168 52.7204 7.80871 53.085 8.10369C53.4529 8.39536 53.7594 8.74503 54.0047 9.1527C54.25 9.55705 54.419 10.0062 54.5118 10.5H53.2391ZM65.8706 11.5739L64.8167 11.8722C64.7504 11.6965 64.6526 11.5258 64.5233 11.3601C64.3974 11.1911 64.2251 11.0518 64.0063 10.9425C63.7876 10.8331 63.5075 10.7784 63.1661 10.7784C62.6988 10.7784 62.3093 10.8861 61.9978 11.1016C61.6895 11.3137 61.5354 11.5838 61.5354 11.9119C61.5354 12.2036 61.6415 12.4339 61.8536 12.603C62.0657 12.772 62.3972 12.9129 62.8479 13.0256L63.9814 13.304C64.6642 13.4697 65.173 13.7232 65.5077 14.0646C65.8425 14.4027 66.0099 14.8385 66.0099 15.3722C66.0099 15.8097 65.8839 16.2008 65.632 16.5455C65.3834 16.8902 65.0354 17.1619 64.588 17.3608C64.1405 17.5597 63.6202 17.6591 63.0269 17.6591C62.248 17.6591 61.6034 17.4901 61.093 17.152C60.5825 16.8139 60.2594 16.3201 60.1235 15.6705L61.2371 15.392C61.3432 15.803 61.5437 16.1113 61.8387 16.3168C62.137 16.5223 62.5264 16.625 63.007 16.625C63.5539 16.625 63.9881 16.509 64.3096 16.277C64.6344 16.0417 64.7968 15.7599 64.7968 15.4318C64.7968 15.1667 64.704 14.9446 64.5184 14.7656C64.3328 14.5833 64.0477 14.4474 63.6633 14.358L62.3905 14.0597C61.6912 13.8939 61.1775 13.6371 60.8493 13.2891C60.5245 12.9377 60.3621 12.4986 60.3621 11.9716C60.3621 11.5407 60.4831 11.1596 60.7251 10.8281C60.9703 10.4967 61.3034 10.2365 61.7243 10.0476C62.1486 9.85866 62.6292 9.7642 63.1661 9.7642C63.9218 9.7642 64.5151 9.92992 64.9459 10.2614C65.3801 10.5928 65.6884 11.0303 65.8706 11.5739ZM68.9493 12.9062V17.5H67.776V7.31818H68.9493V11.0568H69.0487C69.2277 10.6624 69.4962 10.3492 69.8541 10.1172C70.2154 9.88187 70.696 9.7642 71.2959 9.7642C71.8163 9.7642 72.272 9.86861 72.6631 10.0774C73.0542 10.2829 73.3575 10.5994 73.5729 11.027C73.7916 11.4512 73.901 11.9915 73.901 12.6477V17.5H72.7277V12.7273C72.7277 12.1207 72.5703 11.6518 72.2554 11.3203C71.9439 10.9856 71.5113 10.8182 70.9578 10.8182C70.5734 10.8182 70.2287 10.8994 69.9237 11.0618C69.6221 11.2242 69.3835 11.4612 69.2078 11.7727C69.0355 12.0843 68.9493 12.4621 68.9493 12.9062ZM79.1498 17.6591C78.4604 17.6591 77.8555 17.495 77.3351 17.1669C76.8181 16.8388 76.4137 16.3797 76.1221 15.7898C75.8337 15.1998 75.6895 14.5104 75.6895 13.7216C75.6895 12.9261 75.8337 12.2318 76.1221 11.6385C76.4137 11.0452 76.8181 10.5845 77.3351 10.2564C77.8555 9.92827 78.4604 9.7642 79.1498 9.7642C79.8392 9.7642 80.4424 9.92827 80.9594 10.2564C81.4798 10.5845 81.8841 11.0452 82.1725 11.6385C82.4642 12.2318 82.61 12.9261 82.61 13.7216C82.61 14.5104 82.4642 15.1998 82.1725 15.7898C81.8841 16.3797 81.4798 16.8388 80.9594 17.1669C80.4424 17.495 79.8392 17.6591 79.1498 17.6591ZM79.1498 16.6051C79.6734 16.6051 80.1043 16.4709 80.4424 16.2024C80.7805 15.9339 81.0307 15.581 81.1931 15.1435C81.3555 14.706 81.4367 14.232 81.4367 13.7216C81.4367 13.2112 81.3555 12.7356 81.1931 12.2947C81.0307 11.8539 80.7805 11.4976 80.4424 11.2259C80.1043 10.9541 79.6734 10.8182 79.1498 10.8182C78.6261 10.8182 78.1952 10.9541 77.8572 11.2259C77.5191 11.4976 77.2689 11.8539 77.1064 12.2947C76.944 12.7356 76.8628 13.2112 76.8628 13.7216C76.8628 14.232 76.944 14.706 77.1064 15.1435C77.2689 15.581 77.5191 15.9339 77.8572 16.2024C78.1952 16.4709 78.6261 16.6051 79.1498 16.6051ZM84.401 20.3636V9.86364H85.5345V11.0767H85.6737C85.7599 10.9441 85.8792 10.7751 86.0317 10.5696C86.1875 10.3608 86.4095 10.1752 86.6979 10.0128C86.9896 9.84706 87.384 9.7642 87.8811 9.7642C88.5241 9.7642 89.0909 9.92495 89.5814 10.2464C90.0719 10.5679 90.4548 11.0237 90.7298 11.6136C91.0049 12.2036 91.1425 12.8996 91.1425 13.7017C91.1425 14.5104 91.0049 15.2114 90.7298 15.8047C90.4548 16.3946 90.0736 16.852 89.5864 17.1768C89.0992 17.4983 88.5374 17.6591 87.901 17.6591C87.4105 17.6591 87.0177 17.5779 86.7227 17.4155C86.4278 17.2498 86.2007 17.0625 86.0416 16.8537C85.8825 16.6416 85.7599 16.4659 85.6737 16.3267H85.5743V20.3636H84.401ZM85.5544 13.6818C85.5544 14.2585 85.6389 14.7673 85.808 15.2081C85.977 15.6456 86.2239 15.9886 86.5487 16.2372C86.8736 16.4825 87.2713 16.6051 87.7419 16.6051C88.2325 16.6051 88.6418 16.4759 88.9699 16.2173C89.3013 15.9555 89.5499 15.6042 89.7156 15.1634C89.8847 14.7192 89.9692 14.2254 89.9692 13.6818C89.9692 13.1449 89.8863 12.661 89.7206 12.2301C89.5582 11.7959 89.3113 11.4529 88.9798 11.201C88.6517 10.9458 88.2391 10.8182 87.7419 10.8182C87.2646 10.8182 86.8636 10.9392 86.5388 11.1811C86.214 11.4197 85.9687 11.7545 85.803 12.1854C85.6373 12.6129 85.5544 13.1117 85.5544 13.6818Z" fill="#0951BE"/>
</svg>
