<svg width="73" height="68" viewBox="0 0 73 68" fill="none" xmlns="http://www.w3.org/2000/svg">
<g filter="url(#filter0_dd_4_1732)">
<rect x="4" y="2" width="65.4622" height="60.6723" rx="7.08327" fill="white"/>
<path d="M40.2757 33.2477H33.1865C27.976 33.2477 26.3927 31.6645 26.3927 26.4539V14.6386C26.3927 9.4281 27.976 7.84485 33.1865 7.84485H40.2757C45.4862 7.84485 47.0695 9.4281 47.0695 14.6386V26.4539C47.0695 31.6645 45.4862 33.2477 40.2757 33.2477ZM33.1865 9.61714C28.9566 9.61714 28.165 10.4206 28.165 14.6386V26.4539C28.165 30.672 28.9566 31.4754 33.1865 31.4754H40.2757C44.5056 31.4754 45.2972 30.672 45.2972 26.4539V14.6386C45.2972 10.4206 44.5056 9.61714 40.2757 9.61714H33.1865Z" fill="#444444"/>
<path d="M39.0942 13.7525H34.368C33.8836 13.7525 33.4819 13.3508 33.4819 12.8664C33.4819 12.3819 33.8836 11.9802 34.368 11.9802H39.0942C39.5786 11.9802 39.9803 12.3819 39.9803 12.8664C39.9803 13.3508 39.5786 13.7525 39.0942 13.7525Z" fill="#444444"/>
<path d="M36.7311 29.8331C35.2305 29.8331 34.0135 28.6161 34.0135 27.1156C34.0135 25.615 35.2305 24.3981 36.7311 24.3981C38.2316 24.3981 39.4486 25.615 39.4486 27.1156C39.4486 28.6161 38.2316 29.8331 36.7311 29.8331ZM36.7311 26.1585C36.2112 26.1585 35.7858 26.5839 35.7858 27.1038C35.7858 27.6236 36.2112 28.049 36.7311 28.049C37.2509 28.049 37.6763 27.6236 37.6763 27.1038C37.6763 26.5839 37.2509 26.1585 36.7311 26.1585Z" fill="#444444"/>
<path d="M20.331 47.1761H21.1883L24.1372 54.2566H24.2087L27.1576 47.1761H28.0149V55.3044H27.3163V48.7438H27.2528L24.5103 55.3044H23.8356L21.0931 48.7438H21.0296V55.3044H20.331V47.1761ZM32.3985 55.4314C31.872 55.4314 31.4063 55.2978 31.0015 55.0306C30.5993 54.7633 30.2844 54.3942 30.0569 53.9233C29.8293 53.4496 29.7155 52.9032 29.7155 52.2841C29.7155 51.6597 29.8293 51.1106 30.0569 50.637C30.2844 50.1607 30.5993 49.7903 31.0015 49.5257C31.4063 49.2585 31.872 49.1248 32.3985 49.1248C32.9251 49.1248 33.3894 49.2585 33.7916 49.5257C34.1938 49.7929 34.5087 50.1634 34.7362 50.637C34.9664 51.1106 35.0815 51.6597 35.0815 52.2841C35.0815 52.9032 34.9677 53.4496 34.7402 53.9233C34.5126 54.3942 34.1964 54.7633 33.7916 55.0306C33.3894 55.2978 32.9251 55.4314 32.3985 55.4314ZM32.3985 54.7845C32.8219 54.7845 33.1804 54.6707 33.4741 54.4432C33.7678 54.2156 33.9901 53.9127 34.1409 53.5343C34.2943 53.1559 34.3711 52.7392 34.3711 52.2841C34.3711 51.829 34.2943 51.4109 34.1409 51.0299C33.9901 50.6489 33.7678 50.3433 33.4741 50.1131C33.1804 49.8829 32.8219 49.7678 32.3985 49.7678C31.9778 49.7678 31.6193 49.8829 31.3229 50.1131C31.0292 50.3433 30.8057 50.6489 30.6522 51.0299C30.5014 51.4109 30.426 51.829 30.426 52.2841C30.426 52.7392 30.5014 53.1559 30.6522 53.5343C30.8057 53.9127 31.0292 54.2156 31.3229 54.4432C31.6166 54.6707 31.9752 54.7845 32.3985 54.7845ZM36.7792 55.3044V47.1761H37.4897V50.3711H37.5532C37.6325 50.1885 37.7463 50.0006 37.8945 49.8075C38.0453 49.6143 38.2424 49.4529 38.4859 49.3233C38.7319 49.191 39.0415 49.1248 39.4146 49.1248C39.9147 49.1248 40.3539 49.2571 40.7323 49.5217C41.1106 49.7837 41.4057 50.1515 41.6173 50.6251C41.829 51.0961 41.9348 51.6451 41.9348 52.2722C41.9348 52.9019 41.829 53.4536 41.6173 53.9272C41.4083 54.4009 41.1146 54.77 40.7362 55.0346C40.3605 55.2992 39.9239 55.4314 39.4265 55.4314C39.0561 55.4314 38.7465 55.3653 38.4978 55.233C38.2517 55.1007 38.0532 54.938 37.9024 54.7448C37.7516 54.549 37.6352 54.3585 37.5532 54.1733H37.4658V55.3044H36.7792ZM37.4777 52.2603C37.4777 52.7524 37.5505 53.189 37.696 53.57C37.8442 53.9484 38.0559 54.2461 38.3311 54.463C38.6089 54.6774 38.9449 54.7845 39.3392 54.7845C39.744 54.7845 40.0866 54.6734 40.3671 54.4511C40.6476 54.2262 40.8606 53.9233 41.0061 53.5422C41.1516 53.1612 41.2244 52.7339 41.2244 52.2603C41.2244 51.792 41.1516 51.3699 41.0061 50.9942C40.8632 50.6185 40.6516 50.3208 40.3711 50.1012C40.0906 49.8789 39.7466 49.7678 39.3392 49.7678C38.9423 49.7678 38.6049 49.875 38.3271 50.0893C38.0519 50.301 37.8416 50.5947 37.696 50.9704C37.5505 51.3435 37.4777 51.7734 37.4777 52.2603ZM43.4946 55.3044V49.2082H44.2051V55.3044H43.4946ZM43.8558 48.1604C43.7103 48.1604 43.5859 48.1114 43.4827 48.0135C43.3795 47.913 43.3279 47.7926 43.3279 47.6524C43.3279 47.5121 43.3795 47.3931 43.4827 47.2952C43.5859 47.1946 43.7103 47.1443 43.8558 47.1443C44.0013 47.1443 44.1257 47.1946 44.2289 47.2952C44.3321 47.3931 44.3837 47.5121 44.3837 47.6524C44.3837 47.7926 44.3321 47.913 44.2289 48.0135C44.1257 48.1114 44.0013 48.1604 43.8558 48.1604ZM46.7799 47.1761V55.3044H46.0734V47.1761H46.7799ZM51.114 55.4314C50.5451 55.4314 50.0529 55.2992 49.6375 55.0346C49.2221 54.7673 48.9006 54.3982 48.6731 53.9272C48.4482 53.4536 48.3357 52.9085 48.3357 52.292C48.3357 51.6782 48.4482 51.1331 48.6731 50.6568C48.9006 50.1779 49.2142 49.8035 49.6137 49.5336C50.0159 49.2611 50.4803 49.1248 51.0068 49.1248C51.3375 49.1248 51.6564 49.1857 51.9633 49.3074C52.2702 49.4265 52.5454 49.6104 52.7888 49.8591C53.0349 50.1052 53.2294 50.4161 53.3723 50.7918C53.5152 51.1649 53.5866 51.6067 53.5866 52.1174V52.4667H48.8239V51.8435H52.8642C52.8642 51.4519 52.7849 51.1 52.6261 50.7878C52.47 50.4729 52.2517 50.2242 51.9712 50.0417C51.6934 49.8591 51.3719 49.7678 51.0068 49.7678C50.6205 49.7678 50.2805 49.871 49.9868 50.0774C49.6931 50.2838 49.4629 50.5563 49.2962 50.895C49.1321 51.2337 49.0488 51.6041 49.0461 52.0063V52.3794C49.0461 52.8636 49.1295 53.2869 49.2962 53.6494C49.4655 54.0093 49.705 54.2884 50.0146 54.4868C50.3241 54.6853 50.6906 54.7845 51.114 54.7845C51.4024 54.7845 51.6551 54.7395 51.872 54.6496C52.0916 54.5596 52.2755 54.4392 52.4237 54.2884C52.5745 54.1349 52.6883 53.9669 52.765 53.7843L53.4358 54.0026C53.3432 54.2593 53.191 54.4961 52.9793 54.7131C52.7703 54.93 52.5084 55.1047 52.1935 55.237C51.8813 55.3666 51.5214 55.4314 51.114 55.4314Z" fill="#444444"/>
</g>
<defs>
<filter id="filter0_dd_4_1732" x="0.458365" y="0.229182" width="72.5455" height="67.7555" filterUnits="userSpaceOnUse" color-interpolation-filters="sRGB">
<feFlood flood-opacity="0" result="BackgroundImageFix"/>
<feColorMatrix in="SourceAlpha" type="matrix" values="0 0 0 0 0 0 0 0 0 0 0 0 0 0 0 0 0 0 127 0" result="hardAlpha"/>
<feOffset dy="1.77082"/>
<feGaussianBlur stdDeviation="1.77082"/>
<feColorMatrix type="matrix" values="0 0 0 0 0.196487 0 0 0 0 0.196487 0 0 0 0 0.279476 0 0 0 0.06 0"/>
<feBlend mode="multiply" in2="BackgroundImageFix" result="effect1_dropShadow_4_1732"/>
<feColorMatrix in="SourceAlpha" type="matrix" values="0 0 0 0 0 0 0 0 0 0 0 0 0 0 0 0 0 0 127 0" result="hardAlpha"/>
<feOffset dy="1.77082"/>
<feGaussianBlur stdDeviation="0.885409"/>
<feColorMatrix type="matrix" values="0 0 0 0 0.196487 0 0 0 0 0.196487 0 0 0 0 0.279476 0 0 0 0.06 0"/>
<feBlend mode="multiply" in2="effect1_dropShadow_4_1732" result="effect2_dropShadow_4_1732"/>
<feBlend mode="normal" in="SourceGraphic" in2="effect2_dropShadow_4_1732" result="shape"/>
</filter>
</defs>
</svg>
