<svg width="29" height="29" viewBox="0 0 29 29" fill="none" xmlns="http://www.w3.org/2000/svg">
<g id="vuesax/outline/monitor">
<g id="monitor">
<path id="Vector" d="M20.7626 21.6H7.62396C2.92147 21.6 1.49182 20.1704 1.49182 15.4679V7.97699C1.49182 3.2745 2.92147 1.84485 7.62396 1.84485H20.7507C25.4532 1.84485 26.8829 3.2745 26.8829 7.97699V15.4561C26.8947 20.1704 25.4651 21.6 20.7626 21.6ZM7.62396 3.61714C3.91396 3.61714 3.26412 4.26698 3.26412 7.97699V15.4561C3.26412 19.1661 3.91396 19.8159 7.62396 19.8159H20.7507C24.4608 19.8159 25.1106 19.1661 25.1106 15.4561V7.97699C25.1106 4.26698 24.4608 3.61714 20.7507 3.61714H7.62396V3.61714Z" fill="#444444"/>
<path id="Vector_2" d="M14.1933 27.2478C13.7088 27.2478 13.3071 26.846 13.3071 26.3616V20.7139C13.3071 20.2295 13.7088 19.8278 14.1933 19.8278C14.6777 19.8278 15.0794 20.2295 15.0794 20.7139V26.3616C15.0794 26.846 14.6777 27.2478 14.1933 27.2478Z" fill="#444444"/>
<path id="Vector_3" d="M26.0086 16.614H2.37797C1.89354 16.614 1.49182 16.2122 1.49182 15.7278C1.49182 15.2434 1.89354 14.8417 2.37797 14.8417H26.0086C26.493 14.8417 26.8947 15.2434 26.8947 15.7278C26.8947 16.2122 26.493 16.614 26.0086 16.614Z" fill="#444444"/>
<path id="Vector_4" d="M19.5101 27.2478H8.87638C8.39195 27.2478 7.99023 26.846 7.99023 26.3616C7.99023 25.8772 8.39195 25.4755 8.87638 25.4755H19.5101C19.9946 25.4755 20.3963 25.8772 20.3963 26.3616C20.3963 26.846 19.9946 27.2478 19.5101 27.2478Z" fill="#292D32"/>
</g>
</g>
</svg>
