<svg width="32" height="32" viewBox="0 0 32 32" fill="none" xmlns="http://www.w3.org/2000/svg">
<rect width="32" height="32" rx="16" fill="#9E9E9E"/>
<path d="M26 13.25H6C5.59 13.25 5.25 12.91 5.25 12.5C5.25 12.09 5.59 11.75 6 11.75H26C26.41 11.75 26.75 12.09 26.75 12.5C26.75 12.91 26.41 13.25 26 13.25Z" fill="white"/>
<path d="M12 21.25H10C9.59 21.25 9.25 20.91 9.25 20.5C9.25 20.09 9.59 19.75 10 19.75H12C12.41 19.75 12.75 20.09 12.75 20.5C12.75 20.91 12.41 21.25 12 21.25Z" fill="white"/>
<path d="M18.5 21.25H14.5C14.09 21.25 13.75 20.91 13.75 20.5C13.75 20.09 14.09 19.75 14.5 19.75H18.5C18.91 19.75 19.25 20.09 19.25 20.5C19.25 20.91 18.91 21.25 18.5 21.25Z" fill="white"/>
<path d="M21.56 25.25H10.44C6.46 25.25 5.25 24.05 5.25 20.11V11.89C5.25 7.95 6.46 6.75 10.44 6.75H21.55C25.53 6.75 26.74 7.95 26.74 11.89V20.1C26.75 24.05 25.54 25.25 21.56 25.25ZM10.44 8.25C7.3 8.25 6.75 8.79 6.75 11.89V20.1C6.75 23.2 7.3 23.74 10.44 23.74H21.55C24.69 23.74 25.24 23.2 25.24 20.1V11.89C25.24 8.79 24.69 8.25 21.55 8.25H10.44Z" fill="white"/>
</svg>
