<svg width="112" height="116" viewBox="0 0 112 116" fill="none" xmlns="http://www.w3.org/2000/svg">
<g filter="url(#filter0_dd_5_5081)">
<rect x="4" y="2" width="104" height="108" rx="8" fill="white"/>
<path d="M63 49.5H49C43.52 49.5 40.5 46.48 40.5 41V27C40.5 21.52 43.52 18.5 49 18.5H63C68.48 18.5 71.5 21.52 71.5 27V41C71.5 46.48 68.48 49.5 63 49.5ZM49 21.5C45.14 21.5 43.5 23.14 43.5 27V41C43.5 44.86 45.14 46.5 49 46.5H63C66.86 46.5 68.5 44.86 68.5 41V27C68.5 23.14 66.86 21.5 63 21.5H49Z" fill="#444444"/>
<path d="M64 15.5H48C47.18 15.5 46.5 14.82 46.5 14C46.5 13.18 47.18 12.5 48 12.5H64C64.82 12.5 65.5 13.18 65.5 14C65.5 14.82 64.82 15.5 64 15.5Z" fill="#444444"/>
<path d="M64 55.5H48C47.18 55.5 46.5 54.82 46.5 54C46.5 53.18 47.18 52.5 48 52.5H64C64.82 52.5 65.5 53.18 65.5 54C65.5 54.82 64.82 55.5 64 55.5Z" fill="#444444"/>
<path d="M56 39.5C55.18 39.5 54.5 38.82 54.5 38V30C54.5 29.18 55.18 28.5 56 28.5C56.82 28.5 57.5 29.18 57.5 30V38C57.5 38.84 56.82 39.5 56 39.5Z" fill="#444444"/>
<path d="M62 39.5C61.18 39.5 60.5 38.82 60.5 38V34C60.5 33.18 61.18 32.5 62 32.5C62.82 32.5 63.5 33.18 63.5 34V38C63.5 38.84 62.84 39.5 62 39.5Z" fill="#444444"/>
<path d="M50 39.5C49.18 39.5 48.5 38.82 48.5 38V36C48.5 35.18 49.18 34.5 50 34.5C50.82 34.5 51.5 35.18 51.5 36V38C51.5 38.84 50.82 39.5 50 39.5Z" fill="#444444"/>
<path d="M16.9153 95L12.9309 80.4545H14.2804L17.5758 92.9616H17.6895L20.9849 80.4545H22.519L25.8145 92.9616H25.9281L29.2235 80.4545H30.5801L26.5957 95H25.1752L21.8017 82.6634H21.7093L18.3358 95H16.9153ZM36.1127 95.2273C35.0948 95.2273 34.2141 94.9905 33.4707 94.517C32.7273 94.0388 32.152 93.3783 31.7449 92.5355C31.3424 91.688 31.1412 90.7126 31.1412 89.6094C31.1412 88.5109 31.3424 87.5355 31.7449 86.6832C32.152 85.8262 32.7131 85.1562 33.4281 84.6733C34.1478 84.1856 34.9788 83.9418 35.921 83.9418C36.5128 83.9418 37.0834 84.0507 37.6326 84.2685C38.1819 84.4815 38.6743 84.8106 39.1099 85.2557C39.5502 85.696 39.8983 86.2524 40.1539 86.9247C40.4096 87.5923 40.5375 88.383 40.5375 89.2969V89.9219H32.0147V88.8068H39.2449C39.2449 88.1061 39.1028 87.4763 38.8187 86.9176C38.5394 86.3542 38.1487 85.9091 37.6468 85.5824C37.1497 85.2557 36.5744 85.0923 35.921 85.0923C35.2297 85.0923 34.6213 85.277 34.0957 85.6463C33.5701 86.0156 33.1582 86.5033 32.8599 87.1094C32.5663 87.7154 32.4172 88.3783 32.4125 89.098V89.7656C32.4125 90.6321 32.5616 91.3897 32.8599 92.0384C33.1629 92.6823 33.5914 93.1818 34.1454 93.5369C34.6994 93.892 35.3552 94.0696 36.1127 94.0696C36.6288 94.0696 37.081 93.9891 37.4693 93.8281C37.8623 93.6671 38.1913 93.4517 38.4565 93.1818C38.7264 92.9072 38.93 92.6065 39.0673 92.2798L40.2676 92.6705C40.1019 93.1297 39.8296 93.5535 39.4508 93.9418C39.0768 94.33 38.608 94.6425 38.0446 94.8793C37.4859 95.1113 36.8419 95.2273 36.1127 95.2273ZM46.3702 95.2486C45.7121 95.2486 45.1107 95.1207 44.5662 94.8651C44.0217 94.6046 43.5885 94.2306 43.2665 93.7429C42.9445 93.2505 42.7836 92.6539 42.7836 91.9531C42.7836 91.4134 42.8854 90.9588 43.089 90.5895C43.2926 90.2202 43.5814 89.9171 43.9554 89.6804C44.3295 89.4437 44.7722 89.2566 45.2836 89.1193C45.7949 88.982 46.3584 88.8755 46.9739 88.7997C47.5847 88.724 48.1008 88.6577 48.5222 88.6009C48.9483 88.544 49.2727 88.4541 49.4952 88.331C49.7177 88.2079 49.829 88.009 49.829 87.7344V87.4787C49.829 86.7353 49.6065 86.1506 49.1614 85.7244C48.7211 85.2936 48.0866 85.0781 47.258 85.0781C46.472 85.0781 45.8304 85.2509 45.3333 85.5966C44.8408 85.9422 44.4952 86.3494 44.2963 86.8182L43.0961 86.3849C43.3423 85.7884 43.6832 85.3125 44.1188 84.9574C44.5544 84.5975 45.0421 84.3395 45.5819 84.1832C46.1216 84.0223 46.6685 83.9418 47.2225 83.9418C47.6391 83.9418 48.0724 83.9962 48.5222 84.1051C48.9767 84.214 49.3981 84.4034 49.7864 84.6733C50.1747 84.9384 50.4895 85.3101 50.731 85.7884C50.9725 86.2618 51.0932 86.8632 51.0932 87.5923V95H49.829V93.2741H49.7509C49.5994 93.5961 49.3745 93.9086 49.0762 94.2116C48.7779 94.5147 48.4038 94.7633 47.954 94.9574C47.5042 95.1515 46.9763 95.2486 46.3702 95.2486ZM46.5407 94.0909C47.213 94.0909 47.7954 93.9418 48.2878 93.6435C48.7802 93.3452 49.159 92.9498 49.4242 92.4574C49.6941 91.9602 49.829 91.4134 49.829 90.8168V89.2401C49.7343 89.33 49.5757 89.4105 49.3532 89.4815C49.1354 89.5526 48.882 89.6165 48.5932 89.6733C48.3091 89.7254 48.025 89.7704 47.7409 89.8082C47.4569 89.8461 47.2012 89.8793 46.9739 89.9077C46.3584 89.9834 45.8328 90.1018 45.3972 90.2628C44.9616 90.4238 44.6278 90.6463 44.3958 90.9304C44.1638 91.2098 44.0478 91.5696 44.0478 92.0099C44.0478 92.6728 44.2845 93.1866 44.758 93.5511C45.2315 93.911 45.8257 94.0909 46.5407 94.0909ZM54.4561 95V84.0909H55.6848V85.767H55.7772C55.995 85.2178 56.3738 84.7751 56.9135 84.4389C57.458 84.098 58.0736 83.9276 58.7601 83.9276C58.8643 83.9276 58.9803 83.9299 59.1081 83.9347C59.236 83.9394 59.3425 83.9441 59.4277 83.9489V85.2344C59.3709 85.2249 59.2715 85.2107 59.1294 85.1918C58.9874 85.1728 58.8335 85.1634 58.6678 85.1634C58.0996 85.1634 57.593 85.2841 57.1479 85.5256C56.7076 85.7623 56.3596 86.0914 56.1039 86.5128C55.8482 86.9342 55.7203 87.4148 55.7203 87.9545V95H54.4561ZM64.6319 95.2486C63.9738 95.2486 63.3725 95.1207 62.8279 94.8651C62.2834 94.6046 61.8502 94.2306 61.5282 93.7429C61.2063 93.2505 61.0453 92.6539 61.0453 91.9531C61.0453 91.4134 61.1471 90.9588 61.3507 90.5895C61.5543 90.2202 61.8431 89.9171 62.2172 89.6804C62.5912 89.4437 63.0339 89.2566 63.5453 89.1193C64.0566 88.982 64.6201 88.8755 65.2356 88.7997C65.8464 88.724 66.3625 88.6577 66.7839 88.6009C67.21 88.544 67.5344 88.4541 67.7569 88.331C67.9795 88.2079 68.0907 88.009 68.0907 87.7344V87.4787C68.0907 86.7353 67.8682 86.1506 67.4231 85.7244C66.9828 85.2936 66.3483 85.0781 65.5197 85.0781C64.7337 85.0781 64.0922 85.2509 63.595 85.5966C63.1026 85.9422 62.7569 86.3494 62.5581 86.8182L61.3578 86.3849C61.604 85.7884 61.9449 85.3125 62.3805 84.9574C62.8161 84.5975 63.3038 84.3395 63.8436 84.1832C64.3833 84.0223 64.9302 83.9418 65.4842 83.9418C65.9009 83.9418 66.3341 83.9962 66.7839 84.1051C67.2385 84.214 67.6599 84.4034 68.0481 84.6733C68.4364 84.9384 68.7512 85.3101 68.9927 85.7884C69.2342 86.2618 69.3549 86.8632 69.3549 87.5923V95H68.0907V93.2741H68.0126C67.8611 93.5961 67.6362 93.9086 67.3379 94.2116C67.0396 94.5147 66.6655 94.7633 66.2157 94.9574C65.7659 95.1515 65.238 95.2486 64.6319 95.2486ZM64.8024 94.0909C65.4747 94.0909 66.0571 93.9418 66.5495 93.6435C67.042 93.3452 67.4208 92.9498 67.6859 92.4574C67.9558 91.9602 68.0907 91.4134 68.0907 90.8168V89.2401C67.996 89.33 67.8374 89.4105 67.6149 89.4815C67.3971 89.5526 67.1438 89.6165 66.8549 89.6733C66.5708 89.7254 66.2868 89.7704 66.0027 89.8082C65.7186 89.8461 65.4629 89.8793 65.2356 89.9077C64.6201 89.9834 64.0945 90.1018 63.6589 90.2628C63.2233 90.4238 62.8895 90.6463 62.6575 90.9304C62.4255 91.2098 62.3095 91.5696 62.3095 92.0099C62.3095 92.6728 62.5462 93.1866 63.0197 93.5511C63.4932 93.911 64.0874 94.0909 64.8024 94.0909ZM72.9806 95V80.4545H74.252V86.1719H74.3656C74.5076 85.8452 74.7112 85.509 74.9764 85.1634C75.2463 84.8177 75.599 84.5289 76.0346 84.2969C76.475 84.0601 77.0289 83.9418 77.6966 83.9418C78.5914 83.9418 79.3774 84.1785 80.0545 84.652C80.7316 85.1207 81.2595 85.7789 81.6383 86.6264C82.0171 87.4692 82.2065 88.4517 82.2065 89.5739C82.2065 90.7008 82.0171 91.688 81.6383 92.5355C81.2643 93.383 80.7387 94.0436 80.0616 94.517C79.3893 94.9905 78.608 95.2273 77.7179 95.2273C77.055 95.2273 76.501 95.1089 76.0559 94.8722C75.6156 94.6354 75.2605 94.3442 74.9906 93.9986C74.7207 93.6482 74.5124 93.3073 74.3656 92.9759H74.2093V95H72.9806ZM74.2306 89.5526C74.2306 90.4332 74.3609 91.2145 74.6213 91.8963C74.8864 92.5734 75.2652 93.1061 75.7576 93.4943C76.2548 93.8778 76.8561 94.0696 77.5616 94.0696C78.286 94.0696 78.8992 93.8707 79.4011 93.473C79.903 93.0705 80.2842 92.5284 80.5446 91.8466C80.805 91.1648 80.9352 90.4001 80.9352 89.5526C80.9352 88.7145 80.805 87.9593 80.5446 87.2869C80.2889 86.6146 79.9101 86.0819 79.4082 85.6889C78.9063 85.2912 78.2908 85.0923 77.5616 85.0923C76.8514 85.0923 76.2477 85.2841 75.7505 85.6676C75.2581 86.0464 74.8817 86.572 74.6213 87.2443C74.3609 87.9119 74.2306 88.6813 74.2306 89.5526ZM86.2477 80.4545V95H84.9835V80.4545H86.2477ZM94.0034 95.2273C92.9854 95.2273 92.1047 94.9905 91.3613 94.517C90.618 94.0388 90.0427 93.3783 89.6355 92.5355C89.233 91.688 89.0318 90.7126 89.0318 89.6094C89.0318 88.5109 89.233 87.5355 89.6355 86.6832C90.0427 85.8262 90.6038 85.1562 91.3187 84.6733C92.0384 84.1856 92.8694 83.9418 93.8116 83.9418C94.4035 83.9418 94.974 84.0507 95.5233 84.2685C96.0725 84.4815 96.5649 84.8106 97.0005 85.2557C97.4409 85.696 97.7889 86.2524 98.0446 86.9247C98.3002 87.5923 98.4281 88.383 98.4281 89.2969V89.9219H89.9054V88.8068H97.1355C97.1355 88.1061 96.9934 87.4763 96.7093 86.9176C96.43 86.3542 96.0394 85.9091 95.5375 85.5824C95.0403 85.2557 94.465 85.0923 93.8116 85.0923C93.1203 85.0923 92.5119 85.277 91.9863 85.6463C91.4608 86.0156 91.0488 86.5033 90.7505 87.1094C90.457 87.7154 90.3078 88.3783 90.3031 89.098V89.7656C90.3031 90.6321 90.4522 91.3897 90.7505 92.0384C91.0536 92.6823 91.4821 93.1818 92.036 93.5369C92.59 93.892 93.2458 94.0696 94.0034 94.0696C94.5195 94.0696 94.9717 93.9891 95.3599 93.8281C95.7529 93.6671 96.082 93.4517 96.3471 93.1818C96.617 92.9072 96.8206 92.6065 96.9579 92.2798L98.1582 92.6705C97.9925 93.1297 97.7202 93.5535 97.3414 93.9418C96.9674 94.33 96.4986 94.6425 95.9352 94.8793C95.3765 95.1113 94.7325 95.2273 94.0034 95.2273Z" fill="#444444"/>
</g>
<defs>
<filter id="filter0_dd_5_5081" x="0" y="0" width="112" height="116" filterUnits="userSpaceOnUse" color-interpolation-filters="sRGB">
<feFlood flood-opacity="0" result="BackgroundImageFix"/>
<feColorMatrix in="SourceAlpha" type="matrix" values="0 0 0 0 0 0 0 0 0 0 0 0 0 0 0 0 0 0 127 0" result="hardAlpha"/>
<feOffset dy="2"/>
<feGaussianBlur stdDeviation="2"/>
<feColorMatrix type="matrix" values="0 0 0 0 0.196487 0 0 0 0 0.196487 0 0 0 0 0.279476 0 0 0 0.06 0"/>
<feBlend mode="multiply" in2="BackgroundImageFix" result="effect1_dropShadow_5_5081"/>
<feColorMatrix in="SourceAlpha" type="matrix" values="0 0 0 0 0 0 0 0 0 0 0 0 0 0 0 0 0 0 127 0" result="hardAlpha"/>
<feOffset dy="2"/>
<feGaussianBlur stdDeviation="1"/>
<feColorMatrix type="matrix" values="0 0 0 0 0.196487 0 0 0 0 0.196487 0 0 0 0 0.279476 0 0 0 0.06 0"/>
<feBlend mode="multiply" in2="effect1_dropShadow_5_5081" result="effect2_dropShadow_5_5081"/>
<feBlend mode="normal" in="SourceGraphic" in2="effect2_dropShadow_5_5081" result="shape"/>
</filter>
</defs>
</svg>
