<svg width="62" height="31" viewBox="0 0 62 31" fill="none" xmlns="http://www.w3.org/2000/svg">
<g id="Frame 26086041">
<g id="Group 4">
<path id="Vector" d="M42.7832 3.44373H16.0254V23.4704H42.7832V3.44373Z" fill="#AECDFB"/>
<g id="Group">
<path id="Vector_2" d="M45.5389 26.9149H30.7346C30.3544 26.9149 30.0458 26.6069 30.0458 26.226C30.0458 25.845 30.3544 25.5371 30.7346 25.5371H44.85V1.37778H13.9588V3.8006C13.9588 4.18087 13.6502 4.48949 13.2699 4.48949C12.8897 4.48949 12.5811 4.18087 12.5811 3.8006V0.688889C12.5811 0.308622 12.8897 0 13.2699 0H45.5389C45.9198 0 46.2278 0.308622 46.2278 0.688889V26.226C46.2278 26.6063 45.9198 26.9149 45.5389 26.9149Z" fill="#0C0C0C"/>
<path id="Vector_3" d="M19.0704 26.9149H13.2699C12.8897 26.9149 12.5811 26.607 12.5811 26.226V22.7561C12.5811 22.3751 12.8897 22.0672 13.2699 22.0672C13.6502 22.0672 13.9588 22.3751 13.9588 22.7561V25.5371H19.0704C19.4507 25.5371 19.7593 25.8451 19.7593 26.226C19.7593 26.607 19.4507 26.9149 19.0704 26.9149Z" fill="#0C0C0C"/>
<path id="Vector_4" d="M61.3111 26.9149C60.9322 26.9149 60.625 26.6097 60.6222 26.2308L60.5568 16.492L53.4943 9.07889H46.2279V25.5371H50.1442C50.5252 25.5371 50.8331 25.8451 50.8331 26.226C50.8331 26.607 50.5252 26.9149 50.1442 26.9149H45.539C45.158 26.9149 44.8501 26.607 44.8501 26.226V8.39C44.8501 8.00973 45.158 7.70111 45.539 7.70111H53.7898C53.9779 7.70111 54.1584 7.77826 54.2886 7.91466L61.7423 15.7391C61.8636 15.8665 61.9311 16.0346 61.9325 16.2096L62 26.2212C62.0027 26.6021 61.6962 26.9121 61.3159 26.9149C61.3145 26.9149 61.3125 26.9149 61.3111 26.9149Z" fill="#0C0C0C"/>
<path id="Vector_5" d="M55.7254 16.9026H49.894C49.513 16.9026 49.2051 16.5947 49.2051 16.2137V8.39C49.2051 8.00973 49.513 7.70111 49.894 7.70111C50.2749 7.70111 50.5829 8.00973 50.5829 8.39V15.5255H55.7254C56.1064 15.5255 56.4143 15.8341 56.4143 16.2144C56.4143 16.5947 56.1057 16.9026 55.7254 16.9026Z" fill="#0C0C0C"/>
<path id="Vector_6" d="M22.7163 30.5598C20.3266 30.5598 18.3818 28.6158 18.3818 26.226C18.3818 23.8363 20.3259 21.8922 22.7163 21.8922C25.1061 21.8922 27.0501 23.8363 27.0501 26.226C27.0501 28.6158 25.1054 30.5598 22.7163 30.5598ZM22.7163 23.27C21.0864 23.27 19.7596 24.5961 19.7596 26.226C19.7596 27.8559 21.0857 29.182 22.7163 29.182C24.3469 29.182 25.6723 27.8559 25.6723 26.226C25.6723 24.5961 24.3462 23.27 22.7163 23.27Z" fill="#0C0C0C"/>
<path id="Vector_7" d="M53.7896 30.5598C51.3991 30.5598 49.4551 28.6158 49.4551 26.226C49.4551 23.8363 51.3991 21.8922 53.7896 21.8922C56.1793 21.8922 58.1234 23.8363 58.1234 26.226C58.1234 28.6158 56.1793 30.5598 53.7896 30.5598ZM53.7896 23.27C52.1597 23.27 50.8329 24.5961 50.8329 26.226C50.8329 27.8559 52.1597 29.182 53.7896 29.182C55.4195 29.182 56.7456 27.8559 56.7456 26.226C56.7456 24.5961 55.4195 23.27 53.7896 23.27Z" fill="#0C0C0C"/>
<path id="Vector_8" d="M29.4045 14.1457H0.688889C0.308622 14.1457 0 13.837 0 13.4568C0 13.0765 0.308622 12.7679 0.688889 12.7679H29.4045C29.7848 12.7679 30.0934 13.0765 30.0934 13.4568C30.0934 13.837 29.7848 14.1457 29.4045 14.1457Z" fill="#0C0C0C"/>
<path id="Vector_9" d="M29.4045 8.31351H7.97942C7.59915 8.31351 7.29053 8.00489 7.29053 7.62462C7.29053 7.24435 7.59915 6.93573 7.97942 6.93573H29.4052C29.7855 6.93573 30.0941 7.24435 30.0941 7.62462C30.0941 8.00489 29.7848 8.31351 29.4045 8.31351Z" fill="#0C0C0C"/>
<path id="Vector_10" d="M29.4045 19.9778H7.97942C7.59915 19.9778 7.29053 19.6698 7.29053 19.2889C7.29053 18.9079 7.59915 18.6 7.97942 18.6H29.4052C29.7855 18.6 30.0941 18.9079 30.0941 19.2889C30.0941 19.6698 29.7848 19.9778 29.4045 19.9778Z" fill="#0C0C0C"/>
</g>
</g>
</g>
</svg>
