<svg width="24" height="24" viewBox="0 0 24 24" fill="none" xmlns="http://www.w3.org/2000/svg">
<g id="Business/shopping-cart">
<path id="Vector" d="M1.71429 2.57141H5.14287L7.44001 14.0486C7.51839 14.4432 7.73307 14.7977 8.04648 15.05C8.35988 15.3022 8.75204 15.4363 9.15429 15.4286H17.4857C17.888 15.4363 18.2801 15.3022 18.5935 15.05C18.9069 14.7977 19.1216 14.4432 19.2 14.0486L20.5714 6.85713H6.00001M9.42858 19.7143C9.42858 20.1877 9.04482 20.5714 8.57144 20.5714C8.09805 20.5714 7.71429 20.1877 7.71429 19.7143C7.71429 19.2409 8.09805 18.8571 8.57144 18.8571C9.04482 18.8571 9.42858 19.2409 9.42858 19.7143ZM18.8572 19.7143C18.8572 20.1877 18.4734 20.5714 18 20.5714C17.5266 20.5714 17.1429 20.1877 17.1429 19.7143C17.1429 19.2409 17.5266 18.8571 18 18.8571C18.4734 18.8571 18.8572 19.2409 18.8572 19.7143Z" stroke="#1A1A1A" stroke-linecap="round" stroke-linejoin="round"/>
</g>
</svg>
