<svg width="14" height="13" viewBox="0 0 14 13" fill="none" xmlns="http://www.w3.org/2000/svg">
<path id="Star 15" d="M6.42937 1.25623C6.60898 0.703442 7.39102 0.703444 7.57063 1.25623L8.6614 4.61327C8.74173 4.86049 8.9721 5.02786 9.23204 5.02786H12.7618C13.3431 5.02786 13.5847 5.77163 13.1145 6.11327L10.2588 8.18804C10.0485 8.34083 9.96055 8.61165 10.0409 8.85886L11.1316 12.2159C11.3113 12.7687 10.6786 13.2284 10.2083 12.8867L7.35267 10.812C7.14238 10.6592 6.85762 10.6592 6.64733 10.812L3.79166 12.8867C3.32143 13.2284 2.68874 12.7687 2.86835 12.2159L3.95912 8.85886C4.03945 8.61165 3.95145 8.34083 3.74116 8.18804L0.885485 6.11327C0.415257 5.77163 0.656924 5.02786 1.23816 5.02786H4.76796C5.0279 5.02786 5.25827 4.86049 5.3386 4.61327L6.42937 1.25623Z" fill="#063A88"/>
</svg>
