<svg width="32" height="32" viewBox="0 0 32 32" fill="none" xmlns="http://www.w3.org/2000/svg">
<rect width="32" height="32" rx="16" fill="#9E9E9E"/>
<path d="M17 18.75H6C5.59 18.75 5.25 18.41 5.25 18V10C5.25 7.38 7.38 5.25 10 5.25H19C19.41 5.25 19.75 5.59 19.75 6V16C19.75 17.52 18.52 18.75 17 18.75ZM6.75 17.25H17C17.69 17.25 18.25 16.69 18.25 16V6.75H10C8.21 6.75 6.75 8.21 6.75 10V17.25Z" fill="white"/>
<path d="M23 24.75H22C21.59 24.75 21.25 24.41 21.25 24C21.25 23.31 20.69 22.75 20 22.75C19.31 22.75 18.75 23.31 18.75 24C18.75 24.41 18.41 24.75 18 24.75H14C13.59 24.75 13.25 24.41 13.25 24C13.25 23.31 12.69 22.75 12 22.75C11.31 22.75 10.75 23.31 10.75 24C10.75 24.41 10.41 24.75 10 24.75H9C6.93 24.75 5.25 23.07 5.25 21V18C5.25 17.59 5.59 17.25 6 17.25H17C17.69 17.25 18.25 16.69 18.25 16V9C18.25 8.59 18.59 8.25 19 8.25H20.84C21.83 8.25 22.74 8.78001 23.23 9.64001L24.94 12.63C25.07 12.86 25.07 13.15 24.94 13.38C24.81 13.61 24.56 13.75 24.29 13.75H23C22.86 13.75 22.75 13.86 22.75 14V17C22.75 17.14 22.86 17.25 23 17.25H26C26.41 17.25 26.75 17.59 26.75 18V21C26.75 23.07 25.07 24.75 23 24.75ZM22.65 23.25H23C24.24 23.25 25.25 22.24 25.25 21V18.75H23C22.04 18.75 21.25 17.96 21.25 17V14C21.25 13.04 22.03 12.25 23 12.25L21.93 10.38C21.71 9.99 21.29 9.75 20.84 9.75H19.75V16C19.75 17.52 18.52 18.75 17 18.75H6.75V21C6.75 22.24 7.76 23.25 9 23.25H9.35001C9.68001 22.1 10.74 21.25 12 21.25C13.26 21.25 14.32 22.1 14.65 23.25H17.36C17.69 22.1 18.75 21.25 20.01 21.25C21.27 21.25 22.32 22.1 22.65 23.25Z" fill="white"/>
<path d="M12 26.75C10.48 26.75 9.25 25.52 9.25 24C9.25 22.48 10.48 21.25 12 21.25C13.52 21.25 14.75 22.48 14.75 24C14.75 25.52 13.52 26.75 12 26.75ZM12 22.75C11.31 22.75 10.75 23.31 10.75 24C10.75 24.69 11.31 25.25 12 25.25C12.69 25.25 13.25 24.69 13.25 24C13.25 23.31 12.69 22.75 12 22.75Z" fill="white"/>
<path d="M20 26.75C18.48 26.75 17.25 25.52 17.25 24C17.25 22.48 18.48 21.25 20 21.25C21.52 21.25 22.75 22.48 22.75 24C22.75 25.52 21.52 26.75 20 26.75ZM20 22.75C19.31 22.75 18.75 23.31 18.75 24C18.75 24.69 19.31 25.25 20 25.25C20.69 25.25 21.25 24.69 21.25 24C21.25 23.31 20.69 22.75 20 22.75Z" fill="white"/>
<path d="M26 18.75H23C22.04 18.75 21.25 17.96 21.25 17V14C21.25 13.04 22.04 12.25 23 12.25H24.29C24.56 12.25 24.81 12.39 24.94 12.63L26.65 15.63C26.71 15.74 26.75 15.87 26.75 16V18C26.75 18.41 26.41 18.75 26 18.75ZM23 13.75C22.86 13.75 22.75 13.86 22.75 14V17C22.75 17.14 22.86 17.25 23 17.25H25.25V16.2L23.85 13.75H23Z" fill="white"/>
</svg>
