<svg width="29" height="29" viewBox="0 0 29 29" fill="none" xmlns="http://www.w3.org/2000/svg">
<g id="vuesax/outline/mobile">
<g id="mobile">
<path id="Vector" d="M1.95402 18.0909V11.0017C1.95402 5.79114 3.53727 4.20789 8.74781 4.20789L20.5631 4.20789C25.7737 4.20789 27.3569 5.79114 27.3569 11.0017V18.0909C27.3569 23.3014 25.7737 24.8847 20.5631 24.8847H8.74781C3.53727 24.8847 1.95402 23.3014 1.95402 18.0909ZM25.5846 11.0017C25.5846 6.7718 24.7812 5.98018 20.5631 5.98018L8.74781 5.98018C4.52976 5.98018 3.72632 6.7718 3.72632 11.0017V18.0909C3.72632 22.3207 4.52976 23.1124 8.74781 23.1124H20.5631C24.7812 23.1124 25.5846 22.3207 25.5846 18.0909V11.0017Z" fill="#0C0C0C"/>
<path id="Vector_2" d="M5.36861 14.5463C5.36861 13.0457 6.58559 11.8287 8.08613 11.8287C9.58668 11.8287 10.8036 13.0457 10.8036 14.5463C10.8036 16.0468 9.58668 17.2638 8.08613 17.2638C6.58559 17.2638 5.36861 16.0468 5.36861 14.5463ZM9.04317 14.5463C9.04317 14.0264 8.61782 13.601 8.09795 13.601C7.57808 13.601 7.15272 14.0264 7.15272 14.5463C7.15272 15.0661 7.57808 15.4915 8.09795 15.4915C8.61782 15.4915 9.04317 15.0661 9.04317 14.5463Z" fill="#0C0C0C"/>
</g>
</g>
</svg>
