<svg width="24" height="24" viewBox="0 0 24 24" fill="none" xmlns="http://www.w3.org/2000/svg">
<g id="Icon">
<path id="Vector" fill-rule="evenodd" clip-rule="evenodd" d="M5.30454 3.87305L5.95287 5.08326C7.48527 7.94374 9.67304 8.82129 11.0357 8.99412V8.48206C11.0357 6.00664 13.0424 3.99992 15.5178 3.99992C17.9932 3.99992 20 6.00664 20 8.48206V9.99992C20 16.6287 15.3005 20.9999 9.89282 20.9999C7.51632 20.9999 5.83756 20.2246 4.74402 19.4146C4.20233 19.0133 3.81105 18.6089 3.55072 18.2974C3.4204 18.1415 3.32224 18.0081 3.25384 17.9087C3.21961 17.8591 3.19275 17.8178 3.17296 17.7864C3.16307 17.7707 3.15493 17.7574 3.14852 17.7468L3.14018 17.7328L3.13697 17.7274L3.1356 17.725L3.13498 17.7239C3.13498 17.7239 3.13439 17.7229 3.99996 17.2221L3.13439 17.7229L2.26608 16.2221H3.99996C5.10393 16.2221 5.75381 16.2179 6.3926 16.0505C7.00168 15.8908 7.66682 15.5608 8.67832 14.7741L9.9062 16.3528C8.77484 17.2327 7.86526 17.732 6.89962 17.9851C6.72285 18.0314 6.54647 18.0687 6.36964 18.0987C7.1594 18.575 8.30395 18.9999 9.89282 18.9999C14.128 18.9999 18 15.5933 18 9.99992V8.48206C18 7.11121 16.8887 5.99992 15.5178 5.99992C14.147 5.99992 13.0357 7.11121 13.0357 8.48206V10.8787L12.1642 10.9916C10.5724 11.198 7.42886 10.5993 5.09341 7.45762C5.00818 7.77709 4.9871 8.10751 5.03124 8.43629C5.13497 9.2088 5.61655 10.087 6.7115 10.844L5.57414 12.4891C4.09766 11.4684 3.23995 10.1244 3.04903 8.70244C2.8584 7.28263 3.35031 5.89966 4.35154 4.86134L5.30454 3.87305Z" fill="#1DA1F2"/>
<path id="Vector_2" fill-rule="evenodd" clip-rule="evenodd" d="M5.46085 12.88C6.03895 12.797 6.55708 12.486 6.79989 12.3096L7.97543 13.9276C7.61208 14.1916 6.78353 14.7106 5.74504 14.8597C4.63691 15.0188 3.34111 14.7419 2.25177 13.481L3.76522 12.1735C4.36169 12.8639 4.95239 12.953 5.46085 12.88Z" fill="#1DA1F2"/>
<path id="Vector_3" fill-rule="evenodd" clip-rule="evenodd" d="M19.7863 5.48321C19.9032 5.34128 19.9879 5.11993 19.9865 4.74214L21.9865 4.73474C21.989 5.40623 21.8374 6.13866 21.3302 6.75457C20.8214 7.37256 20.0665 7.73743 19.1357 7.89718L18.7974 5.926C19.4141 5.82015 19.6712 5.62308 19.7863 5.48321Z" fill="#1DA1F2"/>
</g>
</svg>
